<svg width="572" height="512" viewBox="0 0 572 512" fill="none" xmlns="http://www.w3.org/2000/svg">
<path d="M98.3256 508.069C102.886 509.2 107.232 504.937 108.041 498.533C108.852 492.128 105.814 486.012 101.258 484.875C52.296 472.639 16.7579 412.926 16.7579 342.894C16.7579 263.372 62.7763 198.68 119.342 198.68C132.834 198.68 145.724 202.367 157.533 209.051L152.42 223.441C142.158 217.804 131.008 214.676 119.342 214.676C69.0517 214.676 28.1377 272.192 28.1377 342.894C28.1377 413.592 69.0517 471.109 119.342 471.109C166.806 471.109 205.9 419.868 210.145 354.673H221.574C217.846 419.529 183.618 473.331 137.426 484.875C132.87 486.014 129.833 492.128 130.644 498.533C131.366 504.243 134.898 508.253 138.883 508.253C139.37 508.253 139.864 508.193 140.359 508.069C187.296 496.337 223.606 447.11 234.951 384.58C240.182 391.36 246.685 396.224 253.894 398.374V422.446H246.554C241.926 422.446 238.175 427.718 238.175 434.225C238.175 440.732 241.926 446.004 246.554 446.004H277.992C282.621 446.004 286.371 440.732 286.371 434.225C286.371 427.718 282.621 422.446 277.992 422.446H270.653V398.374C288.891 392.935 302.619 370.129 302.619 342.892C302.619 330.199 299.637 318.467 294.608 309.008L393.717 154.688L403.163 190.244C361.992 216.731 333.315 275.191 333.315 342.892C333.315 435.401 386.853 510.665 452.658 510.665C518.463 510.665 572 435.401 572 342.892C572 250.382 518.463 175.12 452.658 175.12C440.922 175.12 429.579 177.526 418.857 181.985L390.173 74.0066H438.179C441.49 85.3397 449.418 93.3481 458.658 93.3481C460.451 93.3481 461.91 95.3993 461.91 97.92C461.91 100.441 460.451 102.492 458.658 102.492H448.459C436.253 102.492 426.322 116.454 426.322 133.613C426.322 150.771 436.254 164.732 448.459 164.732H458.658C484.865 164.732 506.186 134.759 506.186 97.9184C506.186 61.0777 484.865 31.1049 458.658 31.1049C449.418 31.1049 441.49 39.1133 438.179 50.4449H378.1C372.371 50.4449 368.181 58.5271 370.25 66.3453L378.749 98.3362H207.868L202.534 78.255C205.932 75.2898 208.825 71.1622 210.865 66.1176C212.206 62.7959 214.73 60.7306 217.449 60.7306H253.079C262.939 60.7306 269.657 46.6693 265.942 33.8394L265.941 33.8379C260.216 14.0879 246.714 1.32553 231.543 1.32553H145.702C134.255 1.32553 124.942 14.4193 124.942 30.5128C124.942 59.6877 141.826 83.4236 162.58 83.4236H186.018L192.928 109.435L165.043 187.912C150.96 179.673 135.524 175.115 119.344 175.115C53.5372 175.121 0 250.384 0 342.894C0 424.365 41.3519 493.83 98.3256 508.069ZM452.658 198.68C509.224 198.68 555.242 263.372 555.242 342.894C555.242 422.414 509.224 487.107 452.658 487.107C396.092 487.107 350.073 422.414 350.073 342.894C350.073 285.286 374.228 235.468 409.044 212.383L413.039 227.421C382.538 248.187 361.455 292.142 361.455 342.894C361.455 413.592 402.368 471.109 452.659 471.109C494.908 471.109 531.353 430.828 541.286 373.151C542.376 366.829 539.613 360.462 535.115 358.931C530.616 357.395 526.089 361.285 525 367.607C516.894 414.676 487.145 447.549 452.659 447.549C411.61 447.549 378.213 400.599 378.213 342.892C378.213 302.242 394.795 266.955 418.94 249.631L436.813 316.912C431.605 323.198 428.296 332.509 428.296 342.894C428.296 361.778 439.225 377.143 452.659 377.143C466.093 377.143 477.022 361.78 477.022 342.894C477.022 324.008 466.093 308.645 452.659 308.645C452.607 308.645 452.557 308.65 452.507 308.65L434.631 241.353C440.406 239.325 446.443 238.232 452.66 238.232C487.146 238.232 516.895 271.107 525.001 318.178C526.09 324.498 530.616 328.384 535.116 326.854C539.614 325.323 542.377 318.957 541.287 312.634C531.354 254.954 494.908 214.673 452.66 214.673C444.383 214.673 436.369 216.259 428.741 219.177L424.738 204.106C433.615 200.574 442.982 198.68 452.658 198.68ZM452.658 332.205C456.851 332.205 460.263 337.001 460.263 342.896C460.263 348.79 456.851 353.586 452.658 353.586C448.465 353.586 445.053 348.79 445.053 342.896C445.053 337.001 448.465 332.205 452.658 332.205ZM172.516 219.606C199.866 243.005 218.854 283.879 221.583 331.116H210.145C207.476 290.134 191.04 254.684 167.404 233.992L172.516 219.606ZM142.22 331.115C141.072 326.722 139.295 322.753 137.053 319.413L159.877 255.177C178.056 271.837 190.761 299.338 193.305 331.115H142.22ZM119.342 332.205C123.535 332.205 126.947 337.001 126.947 342.896C126.947 348.79 123.535 353.586 119.342 353.586C115.149 353.586 111.737 348.79 111.737 342.896C111.737 337.001 115.149 332.205 119.342 332.205ZM119.342 447.551C78.2931 447.551 44.8956 400.601 44.8956 342.894C44.8956 285.184 78.2931 238.234 119.342 238.234C128.319 238.234 136.929 240.48 144.905 244.592L122.066 308.865C121.171 308.723 120.263 308.645 119.342 308.645C105.909 308.645 94.9785 324.008 94.9785 342.894C94.9785 361.78 105.908 377.143 119.342 377.143C129.833 377.143 138.796 367.773 142.22 354.673H193.305C189.125 406.853 157.558 447.551 119.342 447.551ZM270.653 373.854V342.894C270.653 336.387 266.903 331.115 262.274 331.115C257.646 331.115 253.895 336.387 253.895 342.894V373.854C245.018 369.089 238.686 357.027 238.686 342.894C238.686 324.61 249.268 309.735 262.274 309.735C275.281 309.735 285.861 324.611 285.861 342.894C285.861 357.027 279.529 369.089 270.653 373.854ZM458.658 54.6682C475.625 54.6682 489.428 74.071 489.428 97.9231C489.428 121.775 475.625 141.178 458.658 141.178H448.459C445.493 141.178 443.08 137.786 443.08 133.617C443.08 129.447 445.493 126.055 448.459 126.055H458.658C469.691 126.055 478.668 113.436 478.668 97.9247C478.668 82.4138 469.691 69.7942 458.658 69.7942C455.692 69.7942 453.279 66.4018 453.279 62.232C453.279 58.0606 455.692 54.6682 458.658 54.6682ZM385.006 121.899L387.111 129.821L282.018 293.458C276.178 288.829 269.444 286.175 262.275 286.175C260.783 286.175 259.312 286.298 257.86 286.522L214.129 121.901H385.006V121.899ZM141.698 30.5191C141.698 27.4141 143.494 24.8903 145.701 24.8903H231.542C238.342 24.8903 244.531 29.5627 248.283 37.1784H217.448C208.713 37.1784 200.608 43.8109 196.293 54.4845C194.95 57.8078 192.427 59.8731 189.707 59.8731H162.578C151.066 59.8715 141.698 46.7038 141.698 30.5191ZM200.942 139.609L241.94 293.937C239.427 296.008 237.085 298.444 234.956 301.205C227.004 257.646 206.885 220.876 180.024 198.483L200.942 139.609Z" fill="#FFF7F7"/>
</svg>
