<svg width="146" height="150" viewBox="0 0 146 150" fill="none" xmlns="http://www.w3.org/2000/svg">
<path d="M72.1211 0.322188C68.6934 0.996016 65.1484 3.83781 63.5371 7.23625C62.6582 9.11125 62.5996 9.43352 62.5996 12.4511C62.5996 15.4687 62.6582 15.7909 63.5078 17.6073C64.6211 19.9804 66.9941 22.3827 69.1914 23.496C75.4023 26.5722 82.9902 23.9355 85.9785 17.6659C86.8574 15.7909 86.916 15.4687 86.916 12.4511C86.916 9.43352 86.8574 9.11125 85.9785 7.23625C83.4883 1.99211 77.8926 -0.82039 72.1211 0.322188Z" fill="#CF972B"/>
<path d="M54.0448 26.6309C52.0526 27.3048 50.6171 28.418 49.6796 30.0587C48.8886 31.4063 39.4843 55.6641 38.4296 59.0919C37.7265 61.4063 37.6386 65.1563 38.2831 67.2657C38.5175 68.0567 39.2206 69.7559 39.8651 71.045L41.037 73.3887L38.9276 73.5352C36.4374 73.7403 35.2655 74.3848 34.4745 76.0547C33.83 77.4024 33.9765 79.834 34.7968 80.9473C35.9394 82.5587 37.287 82.9102 42.121 82.9102H46.5155L46.8671 83.9063C47.248 84.9024 47.2187 84.961 44.5526 88.8282C43.0878 90.9669 41.8573 92.754 41.7987 92.8126C41.7694 92.8419 40.5683 92.4903 39.1327 92.0215C35.2655 90.7618 32.5702 90.4102 28.2343 90.6153C23.2831 90.8497 19.8261 91.7872 15.6366 94.043C8.4296 97.9395 3.09756 104.707 0.871002 112.793C0.285064 114.99 0.197174 115.928 0.22647 120.41C0.22647 125.127 0.314361 125.742 1.04678 128.174C4.47452 139.57 13.3808 147.568 24.8651 149.561C39.953 152.197 54.8358 142.383 58.6444 127.266L58.9374 126.035L60.2558 126.182C61.3984 126.328 62.5409 125.947 70.1288 122.93C77.0136 120.176 78.8593 119.326 79.5038 118.623C80.7929 117.1 80.7636 114.902 79.3866 113.467L78.7421 112.793L80.4999 111.006C81.4374 110.039 86.6523 104.883 92.1015 99.5801L101.945 89.9415L102.531 91.67C103.205 93.6329 103.264 93.4571 100.978 94.7755C95.0312 98.1446 90.0507 104.531 87.8534 111.475C82.8144 127.559 92.5116 144.785 109.006 149.033C119.025 151.582 129.279 148.828 136.955 141.533C140.676 137.959 143.342 133.535 144.953 128.174C145.685 125.742 145.773 125.127 145.773 120.41C145.803 114.522 145.363 112.266 143.312 107.871C139.328 99.4044 132.59 93.838 123.098 91.2012C121.574 90.7911 120.08 90.6739 115.861 90.6739H110.5L107.717 82.3243C106.193 77.7247 104.934 73.8868 104.934 73.7403C104.934 73.6231 105.9 74.004 107.072 74.6192C110.646 76.4063 112.873 76.0255 114.045 73.3594C114.748 71.7774 114.455 70.254 113.225 69.0821C112.463 68.379 106.135 65.0391 105.578 65.0391C105.432 65.0391 105.226 65.8008 105.139 66.7383C104.816 70.5469 101.389 74.9122 98.078 75.7618C97.6679 75.8497 97.3163 76.0255 97.3163 76.1426C97.3163 76.2598 97.6386 77.2852 98.0194 78.4278L98.7226 80.5079L96.6425 80.6837C95.4706 80.7715 91.6034 80.918 88.0292 81.0059L81.496 81.1817V80.2442C81.496 78.4864 80.8222 76.9337 79.4452 75.586C78.3319 74.4727 77.5702 74.0626 74.3183 72.8907C72.2382 72.0997 69.6015 71.2794 68.4589 71.0157C64.8554 70.1661 62.9218 68.6426 62.0136 65.8887C61.6034 64.5997 59.4062 44.9415 59.5819 43.8575C59.6405 43.5645 61.3105 47.6954 63.3319 53.0274C67.0819 62.959 67.7558 64.3067 69.5429 65.2149C70.5976 65.7422 92.9218 70.8985 94.2109 70.8985C95.5292 70.8985 97.58 69.7559 98.6054 68.4669C99.4257 67.4415 99.5136 67.1192 99.5136 65.3614C99.5136 63.6915 99.3964 63.1934 98.6933 62.168C98.2538 61.4942 97.4042 60.7032 96.789 60.4102C96.203 60.088 91.4276 58.8868 86.1835 57.7149C80.9394 56.543 76.5448 55.4883 76.4276 55.3712C76.3105 55.254 75.1972 52.5294 73.996 49.336C70.3925 39.8731 70.0116 38.8184 70.3046 39.1114C70.4511 39.2579 71.9452 41.3087 73.5859 43.6231C75.6659 46.5235 76.662 47.6954 76.8085 47.4317C76.955 47.1973 77.5409 45.586 78.1269 43.8282C79.0058 41.2208 79.1816 40.3419 79.0644 39.1993C78.7128 36.211 76.9843 33.6622 74.4648 32.3731C73.7323 32.0215 69.7773 30.4395 65.6464 28.8868C57.5019 25.8399 56.7401 25.6934 54.0448 26.6309ZM86.9745 93.5157L82.0526 98.2911L80.0312 105.147C78.8886 108.926 77.9804 112.061 77.9804 112.119C77.9804 112.178 77.453 112.207 76.8085 112.207C76.164 112.207 74.8163 112.529 73.8202 112.94C72.8241 113.35 72.0038 113.643 71.9452 113.584C71.9159 113.555 73.3222 108.779 75.0507 102.979C76.7792 97.1778 78.4198 91.67 78.6835 90.7618L79.1523 89.0919L82.7558 88.9747C84.7187 88.9454 87.5898 88.8575 89.1132 88.8282L91.8964 88.7696L86.9745 93.5157ZM64.7968 89.8243C64.7968 89.9415 63.3612 94.834 61.6034 100.752C59.8456 106.641 58.3222 111.973 58.2343 112.559C57.9999 113.936 58.4687 115.811 59.4062 117.246L60.1093 118.33L59.4355 118.682C58.2343 119.297 57.1796 120.498 57.0038 121.494L56.828 122.49L55.9491 121.67C55.4804 121.231 54.6015 119.883 54.0155 118.711C53.1366 116.895 52.9608 116.191 52.8437 114.141C52.7265 111.973 52.8437 111.27 53.7812 107.988L54.8651 104.297L53.9276 102.92C53.4003 102.158 51.9941 100.518 50.7929 99.2579L48.5956 96.9727L49.6796 95.3614C50.2655 94.4825 50.7929 93.7501 50.8515 93.7501C50.9101 93.7501 51.8476 95.918 52.9608 98.584C54.1034 101.397 55.0409 103.272 55.1581 103.066C55.4804 102.451 57.7655 94.7169 57.7655 94.1895C57.7655 93.9551 57.4433 92.9298 57.0331 91.963C56.6523 90.9669 56.3886 90.0587 56.4765 89.9122C56.6523 89.6192 64.7968 89.5313 64.7968 89.8243ZM34.4452 98.877C35.5878 99.1114 36.6132 99.4337 36.7597 99.5801C36.9355 99.7559 34.5624 103.477 30.6659 109.19C25.4218 116.865 24.2499 118.711 24.1327 119.736C23.9569 121.318 24.4843 122.578 25.6562 123.428C26.5644 124.072 26.6816 124.072 38.8983 124.16L51.2616 124.248L50.8222 125.859C49.123 132.422 43.9667 138.135 37.5507 140.596C25.9491 145.049 12.9999 138.897 8.95694 127.002C7.81436 123.662 7.63858 118.623 8.51749 115.107C10.5683 106.875 16.8964 100.693 25.0995 98.877C27.4726 98.3497 31.9843 98.3497 34.4452 98.877ZM122.951 99.4337C130.217 101.807 135.637 107.637 137.482 115.107C138.361 118.623 138.185 123.662 137.043 127.002C134.142 135.586 126.467 141.445 117.531 142.002C106.984 142.647 97.6386 135.645 94.9433 125.098C94.3573 122.842 94.4452 117.246 95.0898 114.844C96.5546 109.453 99.7773 105 104.494 101.865L105.637 101.074L109.24 111.68C111.525 118.389 113.078 122.52 113.488 122.959C115.773 125.391 120.168 123.662 120.168 120.352C120.168 119.561 114.719 102.627 113.254 98.9063C113.049 98.379 113.195 98.3497 116.828 98.4962C119.816 98.6426 121.105 98.8184 122.951 99.4337ZM45.373 104.941C47.9218 107.578 50.2362 111.797 50.9687 115.078L51.2616 116.309H43.3515C39.0155 116.309 35.4999 116.191 35.5585 116.074C35.7929 115.547 43.8788 103.74 43.996 103.711C44.0839 103.711 44.6991 104.268 45.373 104.941Z" fill="#CF972B"/>
</svg>
