<svg width="94" height="24" viewBox="0 0 94 24" fill="none" xmlns="http://www.w3.org/2000/svg">
<path d="M41.6257 0.0778749C41.5812 0.111235 41.5479 2.89128 41.5479 6.24957V12.3434H42.3263H43.1047V11.6762C43.1047 11.3092 43.1492 11.009 43.1936 11.009C43.2381 11.009 43.3604 11.1536 43.4716 11.3315C43.972 12.1766 45.4177 12.6659 46.7632 12.4435C47.6195 12.3101 48.2088 12.0209 48.7648 11.4649C50.3105 9.91922 50.3995 6.31629 48.9316 4.6705C48.1866 3.84761 47.7084 3.63633 46.4852 3.58073C45.1285 3.51401 44.4836 3.72529 43.7496 4.45922C43.4494 4.75947 43.1825 5.00411 43.1603 5.00411C43.1269 5.00411 43.1047 3.88097 43.1047 2.50207V3.37544e-05H42.4041C42.0149 3.37544e-05 41.6591 0.0333943 41.6257 0.0778749ZM46.8633 5.07083C47.9197 5.50452 48.3868 6.42749 48.3756 8.07328C48.3756 8.96289 48.3423 9.15193 48.0531 9.7413C47.575 10.6976 47.019 11.0424 45.9292 11.098C44.6504 11.1647 43.9609 10.7977 43.4716 9.80802C42.9156 8.67376 43.0157 6.80558 43.6718 5.89372C44.3057 5.01523 45.8069 4.62602 46.8633 5.07083Z" fill="#CF972B"/>
<path d="M70.4267 0.077839C70.3822 0.111199 70.3489 2.89124 70.3489 6.24953V12.3434H71.1273H71.9057V10.3974C71.9057 9.10742 71.9502 8.45133 72.028 8.45133C72.0836 8.45133 73.0288 9.32982 74.1075 10.3974L76.0758 12.3434L77.1322 12.3323H78.1886L75.9312 10.1416L73.6627 7.95092L75.7866 5.86033C76.9543 4.70383 77.9106 3.73637 77.9106 3.71413C77.9106 3.69189 77.4658 3.66965 76.9209 3.66965H75.9423L73.9852 5.66016C72.9176 6.76106 72.0058 7.62843 71.9724 7.59507C71.9391 7.55059 71.9057 5.82697 71.9057 3.75861V-2.20351e-06H71.2051C70.8159 -2.20351e-06 70.4601 0.0333583 70.4267 0.077839Z" fill="#CF972B"/>
<path d="M31.0392 0.467052C30.6945 0.667215 30.5499 0.911859 30.5388 1.31218C30.5388 1.82371 30.7167 2.10172 31.1504 2.29076C31.662 2.50204 32.1512 2.37972 32.496 1.96827C32.8629 1.53459 32.8073 0.956339 32.3736 0.578254C32.0512 0.31137 31.4173 0.255769 31.0392 0.467052Z" fill="#CF972B"/>
<path d="M19.8635 6.6165V12.3434H22.7548C24.4673 12.3434 25.8795 12.2878 26.2243 12.2211C27.9145 11.8652 28.8709 10.7977 28.8709 9.27422C28.8709 8.37348 28.6818 7.8842 28.0924 7.32819C27.7144 6.9501 27.4141 6.77218 26.9916 6.66098C26.6802 6.58314 26.4244 6.49418 26.4355 6.46082C26.4355 6.42745 26.7024 6.27177 27.0138 6.11609C27.492 5.88257 27.6476 5.738 27.9034 5.2376C28.3037 4.42582 28.326 3.42501 27.9368 2.61324C27.2696 1.20098 26.2576 0.900731 22.2321 0.889611H19.8635V6.6165ZM25.7016 2.66884C26.2799 2.94684 26.5356 3.38053 26.5356 4.09222C26.5356 4.77055 26.202 5.30432 25.5904 5.61568C25.2012 5.81585 24.9232 5.83809 23.3108 5.83809H21.4759L21.4426 4.1367L21.4092 2.44643H23.333C25.0122 2.44643 25.3013 2.46867 25.7016 2.66884ZM26.2799 7.50611C27.0138 7.87308 27.2473 8.329 27.1806 9.2631C27.1361 9.84135 27.0805 9.97479 26.7803 10.2417C26.2465 10.7198 25.7572 10.7977 23.5109 10.7643L21.4759 10.731L21.4426 9.11854C21.4315 8.24004 21.4426 7.45051 21.4648 7.37267C21.5093 7.26147 22.0097 7.22811 23.6221 7.22811C25.6349 7.22811 25.735 7.23923 26.2799 7.50611Z" fill="#CF972B"/>
<path d="M0.0139195 1.44562C-0.0528015 1.55682 0.0917607 2.44643 1.08146 8.11772C1.64858 11.2981 1.80427 11.9875 1.98219 12.1432C2.19347 12.3323 2.57156 12.3434 6.5637 12.3434C8.95453 12.3434 10.9784 12.2989 11.0451 12.2544C11.1897 12.1655 12.4129 5.70464 12.4129 5.05967C12.4129 4.87063 12.5463 4.00326 12.702 3.12476C12.9467 1.80146 12.9689 1.51234 12.8466 1.4345C12.6353 1.30106 0.102881 1.30106 0.0139195 1.44562ZM8.52085 4.97071C8.50973 5.02631 8.37629 5.86033 8.20948 6.8389L7.89812 8.61813L6.43026 8.65149L4.97351 8.68485L4.89567 8.26228C4.86231 8.02876 4.70663 7.22811 4.56207 6.48306C4.41751 5.72688 4.29518 5.07079 4.29518 5.00407C4.29518 4.93735 5.05136 4.89287 6.40802 4.89287C7.57563 4.89287 8.52085 4.92623 8.52085 4.97071Z" fill="#CF972B"/>
<path d="M35.4762 1.87932C35.4539 1.90156 35.4317 2.32412 35.4317 2.80229V3.66966H34.7089H33.9861V4.33687V5.00408H34.7089H35.4317V7.3282C35.4317 8.5959 35.4873 9.9192 35.5429 10.2417C35.7764 11.5094 36.6772 12.2211 38.1339 12.31C38.5787 12.3434 39.0791 12.31 39.2459 12.2433C39.5462 12.1321 39.5573 12.0876 39.5239 11.4871L39.4906 10.8422L38.8122 10.8755C37.9115 10.9311 37.3666 10.6976 37.1442 10.175C37.0219 9.8636 36.9885 9.30759 37.0108 7.41716L37.0441 5.05968L38.3007 5.02632L39.5573 4.99296L39.5239 4.35911L39.4906 3.72526L38.2451 3.6919L36.9996 3.65854L36.9663 2.76893L36.9329 1.86819L36.2324 1.85707C35.8432 1.84595 35.4984 1.85707 35.4762 1.87932Z" fill="#CF972B"/>
<path d="M89.5201 1.87931C89.4979 1.90155 89.4757 2.313 89.4757 2.79117V3.65854L88.7306 3.6919L87.9744 3.72526L87.9411 4.35911L87.9077 4.99296L88.6639 5.02632L89.4201 5.05968L89.4757 7.83972C89.5201 10.1527 89.5646 10.6754 89.7203 10.9534C89.9538 11.3759 90.4209 11.8207 90.899 12.0543C91.3216 12.2767 92.5115 12.399 93.0786 12.2989L93.4789 12.2211V11.5205V10.8088L92.7783 10.8644C92.2557 10.9089 91.9888 10.8755 91.7219 10.7421C91.0436 10.3974 91.0214 10.2973 91.0547 7.5506L91.0881 5.05968L92.2891 5.02632L93.4789 4.99296V4.33687V3.66966H92.2557H91.0436L91.0102 2.75781L90.9769 1.84595H90.2763C89.8871 1.83483 89.5424 1.85707 89.5201 1.87931Z" fill="#CF972B"/>
<path d="M64.3218 3.76972C63.0986 4.17005 62.2201 4.95958 61.7753 6.0716C61.564 6.6276 61.5195 6.92785 61.5195 8.0065C61.5195 9.65229 61.7531 10.3306 62.6649 11.2425C63.3877 11.9542 64.1439 12.2989 65.4116 12.4546C66.2456 12.5658 67.7135 12.4546 68.2695 12.2433C68.5475 12.1321 68.5697 12.0765 68.5697 11.5316C68.5697 11.198 68.5475 10.9089 68.5141 10.8755C68.4808 10.8421 68.1916 10.8866 67.8691 10.9756C67.0129 11.2091 65.445 11.1202 64.6999 10.7977C63.599 10.3084 63.0208 9.35205 63.0096 8.0065C63.0096 6.03824 64.2662 4.89286 66.3902 4.89286C67.1352 4.89286 67.6023 4.9707 68.2139 5.15974C68.4696 5.2487 68.4696 5.22646 68.4363 4.54813L68.4029 3.84756L67.9581 3.71412C67.2464 3.49172 65.0669 3.5362 64.3218 3.76972Z" fill="#CF972B"/>
<path d="M81.28 3.75857C80.535 4.00322 79.7899 4.53698 79.3562 5.12635C78.5667 6.21613 78.3332 8.19552 78.8002 9.71898C79.0115 10.3751 79.1449 10.5975 79.7232 11.1757C80.5238 11.9764 81.191 12.2766 82.5922 12.4545C83.5708 12.5769 85.1053 12.4545 85.8838 12.1988L86.3063 12.0653L86.3397 11.3536C86.373 10.7087 86.3508 10.6531 86.1729 10.7309C85.7392 10.8977 84.3047 11.1201 83.6375 11.1201C81.7693 11.1201 80.5238 10.3528 80.1902 8.97393L80.1124 8.67369H83.5263H86.9513L86.8846 7.63951C86.7956 6.40517 86.5954 5.67124 86.1395 4.98179C85.7614 4.41466 84.9941 3.86977 84.3047 3.68073C83.6264 3.50281 81.9472 3.53617 81.28 3.75857ZM83.9488 5.04851C84.6605 5.33764 85.3389 6.44965 85.2277 7.12798C85.1943 7.33927 85.0942 7.35039 82.7034 7.35039C81.3356 7.35039 80.1902 7.32815 80.1569 7.29479C80.0457 7.18358 80.3904 6.20501 80.6906 5.79356C81.1466 5.17083 81.7915 4.89283 82.7812 4.89283C83.226 4.89283 83.7487 4.95955 83.9488 5.04851Z" fill="#CF972B"/>
<path d="M30.8724 3.72524C30.8724 3.7586 30.8724 5.69351 30.8724 8.02875L30.8613 12.2878L31.6509 12.3211L32.4293 12.3545L32.407 8.03987L32.3737 3.72524L31.6286 3.69188C31.2061 3.66964 30.8724 3.69188 30.8724 3.72524Z" fill="#CF972B"/>
<path d="M51.6894 6.80554C51.7227 9.7635 51.745 9.98591 51.9785 10.5864C52.2454 11.2536 52.9793 12.032 53.5353 12.2433C54.9142 12.7771 56.5155 12.4991 57.4719 11.5427C57.7054 11.3092 57.9167 11.1202 57.95 11.1202C57.9834 11.1202 58.0056 11.3982 58.0056 11.7318V12.3434H58.784H59.5624V8.00652V3.66965H58.784H58.0056V6.26065C58.0056 8.31788 57.9723 8.98509 57.8277 9.46326C57.4496 10.7421 56.193 11.4315 54.7919 11.1202C53.969 10.9311 53.5242 10.4863 53.3463 9.69678C53.2796 9.35206 53.2239 7.9954 53.2239 6.39409V3.66965H52.4344H51.656L51.6894 6.80554Z" fill="#CF972B"/>
</svg>
