<svg width="525" height="512" viewBox="0 0 525 512" fill="none" xmlns="http://www.w3.org/2000/svg">
<g clip-path="url(#clip0)">
<path d="M3.04244 475.832C4.43187 476.91 6.06537 477.431 7.6845 477.431C8.61866 477.431 9.54564 477.249 10.4224 476.909L18.1858 496.583C15.086 497.599 12.8414 500.568 12.8414 504.077C12.8414 508.424 16.2836 511.946 20.532 511.946H504.468C508.717 511.946 512.159 508.424 512.159 504.077C512.159 500.567 509.913 497.598 506.813 496.583L514.577 476.909C515.454 477.249 516.381 477.431 517.316 477.431C518.935 477.431 520.568 476.909 521.958 475.832C525.341 473.204 526.003 468.268 523.436 464.805L520.745 461.175C521.863 457.33 519.961 453.175 516.252 451.643C515.268 451.236 514.25 451.052 513.252 451.069L285.161 143.432C282.261 138.668 279.089 132.174 270.189 129.06V121.082V91.6141C270.189 87.2683 266.747 83.7451 262.499 83.7451C258.251 83.7451 254.809 87.2683 254.809 91.6141V121.082V129.061C246.016 132.138 242.852 138.48 239.839 143.432L11.7482 451.07C10.7495 451.053 9.73226 451.237 8.74787 451.643C5.03893 453.175 3.13677 457.331 4.25551 461.176L1.56378 464.805C-1.00284 468.268 -0.341447 473.204 3.04244 475.832ZM254.81 300.861H209.938C196.45 300.861 185.478 312.088 185.478 325.889V496.208H43.285L254.809 148.61C254.81 150.742 254.81 277.827 254.81 300.861ZM200.858 325.889C200.858 320.766 204.93 316.6 209.937 316.6H254.809V496.209H200.858V325.889ZM339.523 496.208V430.044C339.523 425.696 336.081 422.174 331.833 422.174C327.585 422.174 324.142 425.696 324.142 430.044V496.208H270.19V316.6H315.063C320.071 316.6 324.142 320.767 324.142 325.889V393.323C324.142 397.67 327.585 401.192 331.833 401.192C336.081 401.192 339.523 397.67 339.523 393.323V325.889C339.523 312.088 328.551 300.861 315.063 300.861H270.19C270.19 295.373 270.19 158.107 270.19 148.609L481.715 496.209H339.523V496.208ZM503.239 463.605L494.096 486.778L373.564 288.707L503.239 463.605ZM30.9051 486.779L21.7615 463.604L151.438 288.704L30.9051 486.779Z" fill="white"/>
<path d="M447.561 48.1947C443.313 48.1947 439.871 51.7179 439.871 56.0636V57.6059H438.364C434.116 57.6059 430.673 61.129 430.673 65.4747C430.673 69.8204 434.116 73.3436 438.364 73.3436H439.871V74.8859C439.871 79.2316 443.313 82.7547 447.561 82.7547C451.81 82.7547 455.252 79.2316 455.252 74.8859V73.3436H456.759C461.007 73.3436 464.45 69.8204 464.45 65.4747C464.45 61.129 461.007 57.6059 456.759 57.6059H455.252V56.0636C455.252 51.7179 451.81 48.1947 447.561 48.1947Z" fill="white"/>
<path d="M411.921 0.0534363C407.673 0.0534363 404.231 3.57668 404.231 7.9225V13.989H398.302C394.053 13.989 390.61 17.5123 390.61 21.8581C390.61 26.2039 394.053 29.7271 398.302 29.7271H404.231V35.7937C404.231 40.1395 407.673 43.6628 411.921 43.6628C416.169 43.6628 419.611 40.1395 419.611 35.7937V29.7271H425.54C429.788 29.7271 433.232 26.2039 433.232 21.8581C433.232 17.5123 429.788 13.989 425.54 13.989H419.611V7.9225C419.611 3.57668 416.169 0.0534363 411.921 0.0534363Z" fill="white"/>
<path d="M364.731 41.1335C341.338 53.5404 326.898 78.9701 327.943 105.919C329.346 142.086 358.138 171.465 393.492 172.803C416.333 173.68 438.091 162.855 451.52 143.664C457.345 135.343 450.181 123.962 440.36 125.964C427.689 128.54 415.18 126.494 404.177 120.055C400.489 117.895 395.792 119.206 393.682 122.98C391.574 126.751 392.853 131.559 396.541 133.717C407.465 140.111 419.517 143.161 431.904 142.757C421.745 152.378 408.219 157.619 394.061 157.076C366.691 156.04 344.398 133.295 343.313 105.296C342.647 88.1182 350.099 71.739 362.857 61.1199C360.382 75.5298 362.419 90.2743 368.869 103.611C370.751 107.505 375.364 109.1 379.172 107.174C382.979 105.246 384.538 100.526 382.654 96.6315C376.353 83.6034 375.509 68.8242 380.277 55.0178C383.628 45.3125 373.669 36.3901 364.731 41.1335Z" fill="white"/>
</g>
<defs>
<clipPath id="clip0">
<rect width="525" height="512" fill="white"/>
</clipPath>
</defs>
</svg>
