<svg width="235" height="222" viewBox="0 0 235 222" fill="none" xmlns="http://www.w3.org/2000/svg">
<path d="M100.035 1.00786C99.7603 2.15009 99.8519 2.35166 150.882 132.364C178 201.369 184.23 216.822 185.192 217.293C186.154 217.83 190.734 215.882 209.928 207.013C224.861 200.092 233.748 195.658 234.343 194.851C235.076 193.709 235.168 193.172 234.756 191.693C234.16 189.409 154.684 5.71116 153.31 3.4267C151.248 5.53087e-06 151.202 5.53087e-06 124.863 5.53087e-06C103.196 5.53087e-06 100.31 0.134386 100.035 1.00786Z" fill="#CF972B"/>
<path d="M87.0343 5.68691C86.6195 6.35806 81.7346 18.6402 76.1123 33.07C68.3701 53.0033 65.4668 59.8491 63.946 61.7954C61.6418 64.8827 33.1617 87.702 14.3132 101.662C7.07793 107.031 0.902627 111.662 0.626121 112.065C-0.75641 113.676 0.0270244 115.89 4.2207 122.401C14.0828 137.703 23.53 158.442 23.53 164.885C23.53 166.764 21.4563 172.871 14.5436 191.462C9.56649 204.751 5.41889 216.295 5.28064 217.168C5.0963 218.04 5.18847 219.45 5.51106 220.389L6.01799 222H21.6406H37.3093L38.9683 219.181C40.1665 217.168 46.6183 197.771 60.7662 153.676L80.9051 90.9906L81.1355 153.341C81.412 223.544 81.0894 218.107 84.9605 220.725C86.8039 221.933 88.6472 222 128.418 222C160.078 222 170.032 221.799 170.447 221.195C170.77 220.725 171 219.517 171 218.376C171 216.966 159.064 185.623 130.861 112.669C108.74 55.6208 90.168 7.90172 89.5689 6.69364C88.2786 4.21037 88.0021 4.07614 87.0343 5.68691ZM79.2921 68.7754C79.2 69.9164 40.2126 180.657 39.7978 180.858C39.5213 180.992 38.784 177.972 38.0466 174.214C34.1295 152.804 27.5394 134.683 19.1981 122.199C16.7556 118.508 16.4791 117.837 17.0782 117.031C17.4469 116.495 24.6361 110.79 33.0695 104.28C52.7014 89.1785 64.6373 79.7824 72.149 73.4735C77.8635 68.6412 79.3382 67.7016 79.2921 68.7754Z" fill="#CF972B"/>
</svg>
