<svg width="93" height="23" viewBox="0 0 93 23" fill="none" xmlns="http://www.w3.org/2000/svg">
<path d="M10.4488 0.0202438C7.05706 0.331513 4.08032 2.04171 2.09106 4.81809C0.498932 7.04349 -0.220208 9.79125 0.0588611 12.5963C0.391598 15.9666 2.30573 19.1079 5.15367 20.9576C5.97656 21.4943 6.58837 21.802 7.51502 22.149C8.03738 22.3422 8.29141 22.3064 8.51323 22.0095C8.58479 21.9129 8.58836 21.8771 8.57763 20.7608C8.57048 20.1275 8.55974 19.6052 8.55259 19.598C8.54901 19.5909 8.39874 19.6123 8.22701 19.641C7.53649 19.7555 6.94973 19.7447 6.4059 19.6052C6.09821 19.5265 5.65456 19.3011 5.40411 19.1007C5.08211 18.8395 4.87817 18.5605 4.68855 18.124C4.37728 17.4084 3.96225 16.8753 3.44705 16.5354C3.20734 16.378 3.02487 16.1812 3.02487 16.0846C3.02487 15.9057 3.45063 15.8199 3.84776 15.92C4.42379 16.0632 4.91395 16.4639 5.36118 17.1437C5.87281 17.9272 6.4703 18.2742 7.31109 18.2707C7.73327 18.2707 7.91574 18.242 8.33076 18.0989C8.56332 18.0202 8.60983 17.988 8.62772 17.9129C8.71359 17.5193 8.76726 17.3547 8.89248 17.1007C8.96761 16.9433 9.09999 16.7394 9.18228 16.6463C9.26457 16.5497 9.32539 16.471 9.31824 16.4639C9.31108 16.4567 9.16081 16.4352 8.98192 16.4102C6.89964 16.1311 5.52218 15.3011 4.76368 13.8664C4.44884 13.2653 4.2449 12.4567 4.16619 11.505C4.04812 10.0202 4.36297 8.87891 5.16082 7.93794L5.31467 7.7519L5.22164 7.43705C5.14651 7.18302 5.12504 7.02202 5.11073 6.59984C5.08926 5.99877 5.14293 5.5909 5.31824 5.03634L5.42916 4.69644L5.79052 4.71791C6.06243 4.73222 6.24848 4.76442 6.51323 4.85029C6.97119 4.99698 7.69749 5.34403 8.18765 5.65172L8.57405 5.89501L8.95688 5.80199C9.81913 5.59805 10.5025 5.51934 11.4327 5.51934C12.363 5.51934 13.0463 5.59805 13.9086 5.80199L14.2914 5.89501L14.6599 5.66245C15.6367 5.05065 16.5848 4.69287 17.1644 4.71433L17.4256 4.72507L17.54 5.06854C17.8191 5.89143 17.8406 6.85387 17.6009 7.57658L17.5472 7.74474L17.7547 8.00592C18.0481 8.37444 18.1841 8.59626 18.3451 8.96835C18.5239 9.39053 18.6456 9.87712 18.6993 10.3959C18.778 11.1472 18.642 12.3387 18.388 13.158C18.1769 13.8342 17.7404 14.5462 17.2502 15.0005C16.964 15.2689 16.3987 15.6481 16.0445 15.8127C15.5079 16.0596 14.4381 16.3422 13.7154 16.4245L13.5079 16.4496L13.6724 16.6356C13.8907 16.8825 14.1018 17.3261 14.1876 17.7233C14.252 18.0202 14.2592 18.2063 14.2664 19.9737L14.2771 21.8986L14.3594 22.0309C14.4631 22.1991 14.685 22.2921 14.9282 22.2671C15.1358 22.2456 15.9837 21.9129 16.5669 21.6231C19.0535 20.378 21.0535 18.192 22.0767 15.6052C22.6599 14.1204 22.9497 12.3136 22.8459 10.7537C22.6814 8.2027 21.7798 5.95226 20.1447 4.0095C18.9247 2.56049 17.2216 1.36908 15.4005 0.689295C14.7064 0.428114 13.7011 0.184823 12.8638 0.0739109C12.3701 0.0059325 10.9461 -0.02269 10.4488 0.0202438Z" fill="#CF972B"/>
<path d="M34.1161 3.58377C32.8317 3.69826 32.0517 3.89146 31.1608 4.31364C29.5293 5.08645 28.4524 6.48895 27.837 8.63922C27.5794 9.53725 27.4471 10.4711 27.3827 11.7805C27.193 15.7984 28.202 18.6428 30.32 20.0632C31.1572 20.6249 32.066 20.9648 33.2395 21.1616C34.3308 21.344 35.9801 21.3548 36.9605 21.1866C37.5508 21.0828 38.2807 20.9004 38.6957 20.7501C39.3218 20.5283 40.1125 20.1204 40.2163 19.9737C40.2628 19.9057 40.2699 19.3583 40.2699 15.6553C40.2699 13.3226 40.2592 11.3762 40.2449 11.3297C40.2342 11.2832 40.1805 11.2296 40.1268 11.2045C40.0553 11.1759 39.2717 11.1687 37.1823 11.183C34.388 11.2009 34.3343 11.2009 34.2807 11.2725C34.2342 11.3333 34.227 11.5551 34.2234 12.7787V14.2134L34.3057 14.2886C34.3844 14.3637 34.4166 14.3673 35.5114 14.3744L36.6385 14.3852L36.6492 16.0274C36.6528 17.1258 36.6456 17.6839 36.6206 17.7125C36.5669 17.7769 36.0875 17.8413 35.4041 17.8735C34.1698 17.9308 33.4435 17.7877 32.7995 17.3583C31.8728 16.743 31.3254 15.6195 31.125 13.9022C31.0499 13.2725 31.0392 11.827 31.1072 11.2188C31.3182 9.25818 32.0052 8.02025 33.1966 7.44423C33.8478 7.13296 34.4596 7.02562 35.583 7.02562C36.6957 7.0292 37.5293 7.13653 38.3522 7.39414C38.8782 7.55514 38.9247 7.53009 39.0463 6.96122C39.0893 6.77518 39.2288 6.1741 39.3576 5.6267C39.4971 5.04351 39.5866 4.59271 39.5758 4.54262C39.5472 4.43886 39.3504 4.3208 38.9283 4.15622C38.3164 3.92366 37.5472 3.7555 36.5562 3.64817C36.0839 3.59808 34.4453 3.55514 34.1161 3.58377Z" fill="#CF972B"/>
<path d="M56.4665 4.27782L56.3699 4.35296V12.5891C56.3699 17.1186 56.3842 20.8431 56.3985 20.8646C56.4736 20.9791 56.5881 20.9862 58.1946 20.9862H59.8082L59.894 20.8968L59.9835 20.8109V17.3011V13.7948H62.3985H64.8135V17.3154V20.8395L64.9065 20.9111C64.9996 20.9862 65.0389 20.9862 66.6203 20.9862C68.2017 20.9862 68.2411 20.9862 68.3341 20.9111L68.4271 20.8395V12.5998V4.36011L68.352 4.29213C68.2804 4.22773 68.1981 4.22416 66.6131 4.22416H64.9495L64.8815 4.31002C64.8171 4.38874 64.8135 4.49249 64.8135 7.42988V10.4674H62.3985H59.9835V7.42988C59.9835 4.49249 59.9799 4.38874 59.9155 4.31002L59.8475 4.22416L58.2053 4.21342C56.581 4.20269 56.5595 4.20627 56.4665 4.27782Z" fill="#CF972B"/>
<path d="M82.2483 4.24206C82.2054 4.25995 82.1553 4.30646 82.1338 4.34582C82.1052 4.39591 82.0945 6.88606 82.0945 12.6285V20.8395L82.1875 20.9111C82.2805 20.9826 82.3235 20.9862 83.4326 20.9862C84.3879 20.9862 84.5954 20.9755 84.6598 20.9326C84.7421 20.8753 84.7957 20.6928 84.8351 20.3494C84.8458 20.2277 84.8637 20.1275 84.8744 20.1275C84.8816 20.1275 85.014 20.217 85.1714 20.3243C86.2877 21.1079 87.937 21.4513 89.5328 21.2331C89.937 21.1758 90.3771 21.0399 90.7814 20.836C91.5399 20.4639 92.1768 19.6767 92.5023 18.7072C92.8673 17.6231 93.039 16.1562 92.9925 14.5104C92.9639 13.4406 92.8565 12.7107 92.6097 11.9522C92.1231 10.4567 91.0569 9.50502 89.6079 9.26889C89.1499 9.19733 88.1732 9.19733 87.6973 9.27246C87.2108 9.35118 86.5989 9.53722 86.1481 9.75189C85.9442 9.84849 85.7689 9.92363 85.7617 9.92005C85.751 9.91647 85.7403 8.66781 85.7331 7.15082L85.726 4.38875L85.6437 4.30646L85.5614 4.22417L83.9442 4.21701C83.0533 4.21344 82.2913 4.22417 82.2483 4.24206ZM87.9263 12.1848C88.2626 12.2385 88.5667 12.3995 88.7814 12.6356C89.2716 13.1687 89.4576 14.0238 89.4183 15.5122C89.3646 17.3869 89.0605 18.081 88.2125 18.2814C87.9442 18.3458 87.336 18.3565 86.9961 18.3029C86.7027 18.2563 86.1446 18.081 85.887 17.9522L85.6902 17.8556L85.6795 15.276L85.6723 12.6929L85.7582 12.6356C85.8941 12.5462 86.4201 12.3386 86.6741 12.2742C87.1285 12.1562 87.5506 12.1276 87.9263 12.1848Z" fill="#CF972B"/>
<path d="M43.6116 4.59977C42.8352 4.71784 42.2341 5.21158 41.9801 5.93787C41.7833 6.51032 41.8692 7.22589 42.1948 7.73394C42.5347 8.2563 43.2395 8.6427 43.8656 8.6427C44.3343 8.6427 44.9104 8.39941 45.2574 8.05594C45.6545 7.66596 45.8585 7.19011 45.8621 6.6427C45.8656 6.27777 45.812 6.02732 45.6617 5.70889C45.515 5.39047 45.0678 4.94682 44.7422 4.79297C44.3773 4.61766 43.9551 4.54611 43.6116 4.59977Z" fill="#CF972B"/>
<path d="M48.7422 6.32072C48.6814 6.35292 48.6778 6.47099 48.6778 7.99514V9.63377L47.812 9.84486C47.3361 9.95935 46.9139 10.081 46.8746 10.1132C46.803 10.174 46.7994 10.2134 46.7887 11.2617C46.778 12.3207 46.7816 12.3529 46.8531 12.4459L46.9282 12.5425L47.7941 12.5497L48.6599 12.5604L48.6778 15.3332C48.6993 18.31 48.7028 18.335 48.896 18.9647C49.057 19.4942 49.2574 19.8413 49.6044 20.2134C50.0767 20.7107 50.6384 20.9933 51.5043 21.1686C52.0159 21.2724 53.1179 21.301 53.6223 21.2223C54.159 21.1364 54.7279 20.9933 54.803 20.9253C54.8638 20.8717 54.8674 20.7751 54.8674 19.6624C54.8674 18.5461 54.8638 18.4459 54.803 18.3744C54.7279 18.2813 54.7064 18.2813 54.0624 18.3207C53.3003 18.3672 52.8281 18.2384 52.5204 17.9021C52.2449 17.6051 52.2556 17.6946 52.2628 14.9754L52.2735 12.5604L53.5007 12.5425C54.6635 12.5246 54.7315 12.5211 54.7815 12.4567C54.8209 12.3994 54.8316 12.1454 54.8316 11.0399V9.69102L54.7493 9.61588C54.6671 9.53717 54.6492 9.53717 53.4613 9.53717H52.2556V7.98798C52.2556 6.6463 52.2485 6.43163 52.1984 6.36007L52.1447 6.28136H50.4739C49.4041 6.28136 48.7816 6.29567 48.7422 6.32072Z" fill="#CF972B"/>
<path d="M42.1124 9.62666L42.0229 9.71252V15.2188C42.0229 20.7215 42.0229 20.725 42.0981 20.8181C42.2233 20.9826 42.3271 20.9898 43.9442 20.9791L45.4505 20.9683L45.5435 20.8825L45.6365 20.7966V15.2367C45.6365 9.72683 45.6365 9.68032 45.565 9.60877C45.497 9.54079 45.4469 9.53721 43.8476 9.53721H42.1983L42.1124 9.62666Z" fill="#CF972B"/>
<path d="M70.0231 9.63743C69.9694 9.70183 69.9658 10.0238 69.9658 13.8127C69.9658 18.3351 69.9658 18.3208 70.1876 19.0185C70.617 20.3744 71.5472 21.0578 73.2216 21.2546C73.7511 21.319 74.5061 21.3226 74.9569 21.2689C75.3755 21.2188 76.1161 21.0292 76.5669 20.861C76.9211 20.7287 77.5722 20.4138 77.7869 20.2743L77.8943 20.1991L77.9551 20.5319C78.0409 21.0185 77.9515 20.9863 79.2538 20.9863C80.295 20.9863 80.3451 20.9827 80.413 20.9147C80.4846 20.8431 80.4846 20.7966 80.4846 15.2689C80.4846 9.90935 80.481 9.68752 80.4202 9.63386C80.3594 9.58019 80.1876 9.57303 78.6885 9.57303C77.1214 9.57303 77.0213 9.57661 76.9676 9.63743C76.9104 9.69826 76.9068 10.0346 76.9068 13.7305C76.9068 17.5551 76.9032 17.7591 76.8424 17.8127C76.7315 17.9129 76.1876 18.1526 75.8692 18.2385C75.6116 18.3065 75.4792 18.3208 75.0105 18.3208C74.5061 18.3208 74.4381 18.3136 74.2699 18.2349C74.0231 18.124 73.7833 17.8628 73.6975 17.6195C73.6367 17.4406 73.6331 17.1723 73.6152 13.5766C73.5973 9.8521 73.5937 9.71972 73.5293 9.64817C73.4613 9.57303 73.4435 9.57303 71.7726 9.57303C70.1769 9.57303 70.0803 9.57661 70.0231 9.63743Z" fill="#CF972B"/>
<path d="M4.05153 16.217C4.00144 16.2635 4.02649 16.3709 4.09447 16.4066C4.27336 16.4997 4.41647 16.3959 4.29482 16.2635C4.23042 16.192 4.09805 16.1669 4.05153 16.217Z" fill="#CF972B"/>
<path d="M4.51693 16.6106C4.42391 16.7 4.59564 16.9612 4.7316 16.9362C4.8282 16.9183 4.83535 16.7501 4.74591 16.6607C4.67077 16.5856 4.56344 16.5641 4.51693 16.6106Z" fill="#CF972B"/>
<path d="M4.95676 17.2116C4.86731 17.3189 5.01758 17.5873 5.17143 17.5873C5.33601 17.5873 5.33243 17.3333 5.16427 17.2152C5.06409 17.1436 5.014 17.1436 4.95676 17.2116Z" fill="#CF972B"/>
<path d="M5.47573 17.9058C5.42922 18.0596 5.60811 18.2492 5.78343 18.2242C5.89792 18.2099 5.9158 18.0632 5.81563 17.9344C5.71902 17.8127 5.51151 17.7949 5.47573 17.9058Z" fill="#CF972B"/>
<path d="M6.30933 18.3386C6.17695 18.4209 6.25924 18.6177 6.44528 18.675C6.56693 18.7107 6.71004 18.6392 6.71004 18.5426C6.71004 18.3816 6.45244 18.2528 6.30933 18.3386Z" fill="#CF972B"/>
<path d="M8.09466 18.4389C7.94082 18.6106 8.09824 18.7537 8.36658 18.6857C8.48107 18.6535 8.54189 18.5319 8.4918 18.4353C8.44887 18.3494 8.17338 18.3494 8.09466 18.4389Z" fill="#CF972B"/>
<path d="M7.19676 18.5605C7.11805 18.675 7.19319 18.7824 7.36492 18.7967C7.53308 18.811 7.64041 18.7537 7.64041 18.6428C7.64041 18.4747 7.30052 18.4103 7.19676 18.5605Z" fill="#CF972B"/>
</svg>
