<svg width="474" height="466" viewBox="0 0 474 466" fill="none" xmlns="http://www.w3.org/2000/svg">
<path d="M112.075 435H97.1353V376.9H142.37V388.52H112.075V435ZM169.358 391.01H184.713V435H170.188V410.93L156.078 435H140.723V391.01H155.248V415.08L169.358 391.01ZM217.904 402.215V435H203.379V402.215H189.684V391.01H231.599V402.215H217.904ZM252.42 424.21C255.353 424.21 258.673 423.657 262.38 422.55V417.57H250.345C249.515 417.57 248.823 417.847 248.27 418.4C247.717 418.953 247.44 419.645 247.44 420.475V421.305C247.44 422.135 247.717 422.827 248.27 423.38C248.823 423.933 249.515 424.21 250.345 424.21H252.42ZM237.065 391.84C247.191 390.733 256.321 390.18 264.455 390.18C268.218 390.18 271.233 391.314 273.502 393.583C275.771 395.852 276.905 398.867 276.905 402.63V435H264.04L263.21 430.85C260.609 432.565 257.926 433.838 255.159 434.668C252.448 435.443 250.151 435.83 248.27 435.83H245.365C241.602 435.83 238.587 434.696 236.318 432.427C234.049 430.158 232.915 427.143 232.915 423.38V419.645C232.915 415.882 234.049 412.867 236.318 410.598C238.587 408.329 241.602 407.195 245.365 407.195H262.38V403.875C262.38 403.045 262.103 402.353 261.55 401.8C260.997 401.247 260.305 400.97 259.475 400.97C255.878 400.97 251.894 401.136 247.523 401.468C243.207 401.8 239.721 402.049 237.065 402.215V391.84ZM308.837 402.215C305.904 402.215 302.584 402.768 298.877 403.875V423.795H311.327C313.54 423.795 314.647 422.688 314.647 420.475V405.12C314.647 404.29 314.37 403.598 313.817 403.045C313.264 402.492 312.572 402.215 311.742 402.215H308.837ZM298.877 435V449.11H284.352V391.01H297.217L298.047 395.16C300.648 393.445 303.304 392.2 306.015 391.425C308.782 390.595 311.106 390.18 312.987 390.18H316.722C320.485 390.18 323.5 391.314 325.769 393.583C328.038 395.852 329.172 398.867 329.172 402.63V421.72C329.172 425.87 327.982 429.135 325.603 431.514C323.279 433.838 320.042 435 315.892 435H298.877ZM354.062 424.21C356.995 424.21 360.315 423.657 364.022 422.55V417.57H351.987C351.157 417.57 350.466 417.847 349.912 418.4C349.359 418.953 349.082 419.645 349.082 420.475V421.305C349.082 422.135 349.359 422.827 349.912 423.38C350.466 423.933 351.157 424.21 351.987 424.21H354.062ZM338.707 391.84C348.833 390.733 357.963 390.18 366.097 390.18C369.86 390.18 372.876 391.314 375.144 393.583C377.413 395.852 378.547 398.867 378.547 402.63V435H365.682L364.852 430.85C362.252 432.565 359.568 433.838 356.801 434.668C354.09 435.443 351.794 435.83 349.912 435.83H347.007C343.245 435.83 340.229 434.696 337.96 432.427C335.692 430.158 334.557 427.143 334.557 423.38V419.645C334.557 415.882 335.692 412.867 337.96 410.598C340.229 408.329 343.245 407.195 347.007 407.195H364.022V403.875C364.022 403.045 363.746 402.353 363.192 401.8C362.639 401.247 361.947 400.97 361.117 400.97C357.521 400.97 353.537 401.136 349.165 401.468C344.849 401.8 341.363 402.049 338.707 402.215V391.84Z" fill="#CF972B"/>
<line x1="0.375" y1="358.022" x2="473.951" y2="358.022" stroke="#CF972B"/>
<path d="M396.551 0.637906C393.198 1.40637 387.748 4.2008 385.094 6.43634L382.928 8.25272L380.064 6.64593C377.409 5.24871 377.06 5.17885 375.313 6.1569C374.265 6.78565 372.938 8.113 372.309 9.16091C371.331 10.9074 371.401 11.2567 372.868 13.9813L374.475 16.9154L370.353 20.9674L366.301 25.0891L363.367 23.4824C360.642 22.0153 360.293 21.9454 358.547 22.9235C357.499 23.5522 356.171 24.8796 355.543 25.9275C354.565 27.674 354.634 28.0233 356.102 30.7479L357.708 33.682L353.517 37.8737C347.02 44.5803 345.413 49.4007 347.439 56.1073L348.557 59.6003L312.299 95.858L276.041 132.116L271.989 130.16C252.358 121.078 231.191 120.449 213.376 128.413C198.216 135.19 185.013 149.441 180.262 164.112L179.424 166.627L172.298 167.116C153.855 168.373 138.416 174.87 126.05 186.537C98.3156 212.665 95.9403 256.188 120.322 292.236C125.841 300.34 138.206 312.706 146.31 318.225C173.486 336.598 205.622 340.161 231.54 327.516C247.887 319.622 260.183 306.139 266.54 289.093C269.544 281.268 270.802 275.26 271.43 266.248L271.919 259.122L274.434 258.284C277.788 257.166 285.263 253.324 289.105 250.739C300.073 243.334 309.435 229.571 313.766 214.691C315.163 209.801 315.373 207.565 315.373 197.226C315.373 183.673 314.395 178.992 309.365 168.304L306.57 162.365L342.758 126.178L378.946 89.9897L382.439 91.1075C389.146 93.1335 393.966 91.5267 400.673 85.0296L404.864 80.838L407.798 82.4448C410.523 83.9118 410.872 83.9817 412.619 83.0037C413.667 82.3749 414.994 81.0476 415.623 79.9996C416.601 78.2531 416.531 77.9038 415.064 75.1793L413.457 72.2451L417.579 68.1932L421.631 64.0714L424.565 65.6782C427.29 67.1453 427.639 67.2151 429.385 66.2371C430.433 65.6083 431.761 64.281 432.389 63.2331C433.367 61.4866 433.298 61.1373 431.9 58.4826L430.363 55.6183L432.389 53.1033C439.306 44.3707 440.354 32.4245 435.114 22.0851C433.158 18.2428 420.373 5.38843 416.531 3.43233C410.313 0.288602 402.629 -0.829169 396.551 0.637906ZM408.986 29.5602C410.104 30.6081 410.733 32.0054 410.733 33.4724C410.733 35.4984 409.335 37.175 398.717 47.7939C392.15 54.4306 385.792 60.2291 384.675 60.7181C382.998 61.4167 382.299 61.4167 380.762 60.5784C377.898 58.9716 376.78 56.3867 377.828 53.8718C378.317 52.754 384.116 46.3967 390.752 39.8298C401.371 29.2109 403.048 27.8137 405.074 27.8137C406.541 27.8137 407.938 28.4425 408.986 29.5602ZM235.732 192.056C240.133 194.152 244.394 198.344 246.56 202.815C249.075 207.915 249.005 215.949 246.49 221.398C242.648 229.571 235.382 234.182 226.3 234.252C219.803 234.252 214.634 232.017 210.232 227.196C205.901 222.515 204.364 218.533 204.364 212.246C204.434 202.186 209.324 195.2 219.035 191.218C223.646 189.401 230.841 189.751 235.732 192.056ZM179.983 258.564C200.871 279.452 203.945 282.735 203.945 284.552C203.875 288.184 200.452 290.979 197.099 290.141C194.723 289.582 150.362 245.639 149.034 242.496C147.847 239.841 148.545 237.396 150.991 235.719C154.623 233.134 154.693 233.274 179.983 258.564Z" fill="#CF972B"/>
<path d="M269.614 19.5002C257.948 22.4344 255.992 23.2028 255.223 24.9494C254.944 25.5781 253.756 32.634 252.499 40.7379L250.333 55.4086L247.259 55.8976C241.461 56.8757 237.479 61.4166 237.479 66.9356C237.479 77.5545 251.031 81.9557 257.529 73.4327C259.135 71.3369 259.624 69.1712 262.069 52.4046C263.537 42.1351 264.864 33.4025 265.004 32.9833C265.213 32.5642 269.684 31.0971 274.994 29.8396C285.613 27.2548 287.778 25.9274 287.778 22.2248C287.778 19.4304 285.054 16.6359 282.399 16.7058C281.351 16.7058 275.553 18.0332 269.614 19.5002Z" fill="#CF972B"/>
<path d="M163.496 53.0334C154.833 54.5005 146.939 56.0374 145.961 56.4566C142.817 57.784 142.468 59.6003 142.468 74.8998V89.1514L140.023 89.5706C136.809 90.1993 133.037 93.9019 131.989 97.5347C128.915 107.595 141.49 115.838 149.524 109.062C153.436 105.778 153.646 104.451 153.646 84.4707V66.2371L155.252 65.8878C158.117 65.2591 173.696 62.7441 174.883 62.7441C175.861 62.7441 176.001 64.0016 176.001 73.1533V83.4927L173.765 83.9817C168.526 85.0296 164.125 91.3171 165.103 96.4169C166.22 102.425 171.53 106.477 177.258 105.848C180.612 105.499 183.127 103.962 185.362 100.888C186.759 99.0716 186.829 97.9539 187.039 76.297L187.249 53.6622L185.502 51.9157C183.266 49.6801 182.708 49.6801 163.496 53.0334Z" fill="#CF972B"/>
<path d="M391.521 159.431C382.299 160.968 374.335 162.575 373.846 162.924C372.309 163.832 371.75 166.138 369.864 179.481C367.489 196.597 367.908 195.2 364.624 195.689C358.616 196.457 354.285 202.046 355.123 207.984C356.591 218.743 371.541 221.188 375.802 211.338C376.501 209.661 378.108 200.928 379.575 190.659C380.972 180.878 382.369 172.635 382.788 172.425C383.836 171.796 403.118 168.792 403.537 169.212C403.956 169.561 401.93 185.978 401.231 188.563C401.022 189.262 399.904 189.821 398.088 190.1C392.15 190.868 387.888 196.457 388.657 202.395C390.124 213.154 405.074 215.599 409.335 205.749C410.383 203.304 416.321 165.369 416.321 161.178C416.321 159.152 412.828 156.357 410.453 156.427C409.265 156.497 400.742 157.824 391.521 159.431Z" fill="#CF972B"/>
</svg>
