<svg width="152" height="150" viewBox="0 0 152 150" fill="none" xmlns="http://www.w3.org/2000/svg">
<path d="M70.5801 0.175849C70.1113 0.234443 68.4414 0.439521 66.918 0.615302C56.166 1.84577 44.8867 6.03522 35.5703 12.3048C15.9121 25.5176 3.60742 47.959 3.51953 70.752C3.49023 74.9708 3.51953 75.2051 4.28125 76.6407C5.48242 78.8965 6.36133 79.8047 8.4707 80.8887L10.375 81.8848V87.8028V93.7501H8.73438C7.82617 93.7501 6.53711 93.8965 5.86328 94.1016C4.25195 94.5704 1.82031 97.002 1.35156 98.6133C0.853516 100.342 0.853516 134.033 1.35156 135.762C1.84961 137.461 4.25195 139.805 5.98047 140.303C6.80078 140.508 8.70508 140.625 11.1074 140.566L14.916 140.479L15.0039 111.182L15.0625 81.8848L16.9668 80.8887C19.0762 79.8047 19.9844 78.8672 21.127 76.6407C21.8008 75.3516 21.918 74.5899 22.123 71.045C22.6504 62.2266 24.291 55.6348 27.7188 48.7794C39.2324 25.7813 64.6035 14.1505 89.3594 20.5079C99.3496 23.086 107.523 27.92 114.877 35.5665C124.047 45.0879 129.057 56.9825 129.877 71.2208C130.082 74.795 130.229 75.7325 130.785 76.9336C131.723 78.8379 133.715 80.7422 135.502 81.3575L136.938 81.8848L136.996 111.182L137.084 140.479L141.01 140.566C145.961 140.654 147.221 140.303 149.037 138.281C149.74 137.52 150.473 136.348 150.648 135.703C151.146 134.063 151.146 100.313 150.648 98.6719C150.473 98.0274 149.74 96.8555 149.037 96.0938C147.543 94.4239 145.873 93.7501 143.324 93.7501H141.625V87.8028V81.8848L143.061 81.3575C144.848 80.7422 146.84 78.8379 147.777 76.9336C148.656 75.0586 148.832 72.2462 148.393 67.0606C146.811 49.3653 140.102 34.5118 128.002 22.002C116.811 10.459 102.719 3.28132 86.1074 0.703193C83.3242 0.293037 72.4844 -0.0878226 70.5801 0.175849Z" fill="#CF972B"/>
<path d="M70.5215 23.7305C55.4629 25.3125 41.752 34.1895 33.666 47.6075C32.0254 50.3321 30.8828 52.793 30.8828 53.6133C30.8828 54.375 31.6738 54.375 33.6074 53.5547C37.9141 51.7676 41.8691 48.7793 45.8242 44.2969C51.9473 37.3829 59.6523 32.9297 68.6172 31.1426C70.4043 30.7911 72.6016 30.6446 76 30.6446C82.8555 30.6446 87.25 31.6114 93.1973 34.4239C97.8262 36.5918 100.873 38.9063 106.322 44.4141C111.537 49.6582 113.383 51.1231 117.367 53.0274C121.41 54.9903 121.85 54.5508 119.799 50.4786C110.541 32.2266 90.9414 21.5918 70.5215 23.7305Z" fill="#CF972B"/>
<path d="M79.6621 45.8789C68.0898 48.8086 65.2187 49.6289 64.8086 50.127C64.3105 50.7129 64.2812 51.8555 64.2812 64.6289V78.5156L63.0508 77.9883C61.0586 77.1973 57.7773 77.3145 55.7559 78.2812C53.7344 79.2187 52.0352 80.8301 51.0977 82.7637C50.5117 83.9648 50.3652 84.668 50.3652 86.7187C50.3945 88.9746 50.4824 89.3848 51.3613 91.0547C52.4746 93.1055 53.4121 93.9844 55.6094 95.1562C56.8691 95.8008 57.4844 95.918 59.5937 95.918C61.7031 95.918 62.3184 95.8008 63.5781 95.1562C65.7754 94.0137 66.7129 93.1055 67.8262 91.0547L68.8223 89.209L68.9102 77.168L68.998 65.0977L80.7168 62.168L92.4062 59.2383V65.3613V71.4844L91.1758 70.957C89.1836 70.166 85.9023 70.2832 83.8809 71.25C81.8594 72.1875 80.1602 73.7988 79.2227 75.7324C78.6367 76.9336 78.4902 77.6367 78.4902 79.6875C78.5195 81.9434 78.6074 82.3535 79.4863 84.0234C80.5996 86.0742 81.5371 86.9531 83.7344 88.125C84.9941 88.7695 85.6094 88.8867 87.7187 88.8867C89.8281 88.8867 90.4434 88.7695 91.7031 88.125C93.9004 86.9824 94.8379 86.0742 95.9512 84.0234L96.9473 82.1777L97.0352 62.9004L97.123 43.6523L96.3906 42.9199C95.9219 42.4805 95.3359 42.1875 94.8379 42.2168C94.3984 42.2168 87.5723 43.8574 79.6621 45.8789Z" fill="#CF972B"/>
<path d="M24.4375 84.7559C23.002 85.2246 20.541 87.7441 20.1016 89.2383C19.6035 90.9668 19.6035 143.408 20.1016 145.137C20.5703 146.748 23.002 149.18 24.6133 149.648C26.2539 150.117 36.6836 150.117 38.3242 149.648C39.9356 149.18 42.3672 146.748 42.8359 145.137C43.334 143.408 43.334 90.9668 42.8359 89.2969C42.6602 88.6523 41.9277 87.4805 41.2246 86.7188C39.291 84.5801 38.4121 84.375 31.3516 84.4043C27.9531 84.4336 25.0234 84.5801 24.4375 84.7559Z" fill="#CF972B"/>
<path d="M113.5 84.7559C112.064 85.2246 109.604 87.7441 109.164 89.2383C108.666 90.9668 108.666 143.408 109.164 145.137C109.633 146.748 112.064 149.18 113.676 149.648C115.316 150.117 125.746 150.117 127.387 149.648C128.998 149.18 131.43 146.748 131.898 145.137C132.396 143.408 132.396 90.9668 131.898 89.2969C131.723 88.6523 130.99 87.4805 130.287 86.7188C128.354 84.5801 127.475 84.375 120.414 84.4043C117.016 84.4336 114.086 84.5801 113.5 84.7559Z" fill="#CF972B"/>
<path d="M74.6816 101.514L73.9492 102.217V117.188V132.158L74.6816 132.861C75.6191 133.828 76.9668 133.828 77.9043 132.861L78.6367 132.158V117.188V102.217L77.9043 101.514C77.4648 101.045 76.8496 100.781 76.293 100.781C75.7363 100.781 75.1211 101.045 74.6816 101.514Z" fill="#CF972B"/>
<path d="M62.6699 106.201L61.9375 106.904V117.188V127.471L62.6699 128.174C63.6074 129.141 64.9551 129.141 65.8926 128.174L66.625 127.471V117.188V106.904L65.8926 106.201C65.4531 105.732 64.8379 105.469 64.2813 105.469C63.7246 105.469 63.1094 105.732 62.6699 106.201Z" fill="#CF972B"/>
<path d="M86.1074 106.201L85.375 106.904V117.188V127.471L86.1074 128.174C87.0449 129.141 88.3926 129.141 89.3301 128.174L90.0625 127.471V117.188V106.904L89.3301 106.201C88.8906 105.732 88.2754 105.469 87.7188 105.469C87.1621 105.469 86.5469 105.732 86.1074 106.201Z" fill="#CF972B"/>
<path d="M50.9512 110.889C50.2188 111.592 50.2188 111.65 50.2188 117.188C50.2188 122.725 50.2188 122.783 50.9512 123.486C51.3906 123.955 52.0059 124.219 52.5625 124.219C53.1191 124.219 53.7344 123.955 54.1738 123.486C54.9062 122.783 54.9062 122.725 54.9062 117.188C54.9062 111.65 54.9062 111.592 54.1738 110.889C53.7344 110.42 53.1191 110.156 52.5625 110.156C52.0059 110.156 51.3906 110.42 50.9512 110.889Z" fill="#CF972B"/>
<path d="M97.8262 110.889C97.0938 111.592 97.0938 111.65 97.0938 117.188C97.0938 122.725 97.0938 122.783 97.8262 123.486C98.2656 123.955 98.8809 124.219 99.4375 124.219C99.9941 124.219 100.609 123.955 101.049 123.486C101.781 122.783 101.781 122.725 101.781 117.188C101.781 111.65 101.781 111.592 101.049 110.889C100.609 110.42 99.9941 110.156 99.4375 110.156C98.8809 110.156 98.2656 110.42 97.8262 110.889Z" fill="#CF972B"/>
</svg>
