<svg width="512" height="512" viewBox="0 0 512 512" fill="none" xmlns="http://www.w3.org/2000/svg">
<g clip-path="url(#clip0)">
<path d="M256 313.652C204.717 313.652 162.995 355.374 162.995 406.656C162.995 457.939 204.717 499.661 256 499.661C264.629 499.661 273.177 498.479 281.405 496.146C285.386 495.018 287.699 490.877 286.57 486.896C285.442 482.915 281.302 480.603 277.32 481.731C270.421 483.686 263.247 484.678 256 484.678C212.979 484.678 177.978 449.678 177.978 406.656C177.978 363.635 212.979 328.634 256 328.634C299.021 328.634 334.022 363.634 334.022 406.656C334.022 430.156 323.578 452.18 305.367 467.078C302.165 469.698 301.693 474.417 304.313 477.62C306.933 480.823 311.653 481.294 314.855 478.674C336.558 460.919 349.005 434.669 349.005 406.656C349.005 355.374 307.283 313.652 256 313.652V313.652Z" fill="#FFF3F3"/>
<path d="M474.227 240.479V230.565C474.227 110.234 376.331 12.339 256 12.339C225.19 12.339 195.385 18.663 167.414 31.134C140.406 43.176 116.452 60.315 96.216 82.075C93.399 85.105 93.571 89.845 96.6 92.662C99.629 95.48 104.369 95.308 107.187 92.278C145.578 50.998 199.817 27.322 256 27.322C368.015 27.322 459.154 118.409 459.242 230.404C457.555 219.16 447.832 210.51 436.126 210.51H417.047C412.323 172.373 394.184 137.186 365.601 110.972C335.582 83.438 296.658 68.275 256 68.275C215.014 68.275 175.857 83.653 145.743 111.577C117.502 137.763 99.634 172.677 94.95 210.51H75.874C64.166 210.51 54.443 219.163 52.758 230.409C52.789 190.055 64.668 151.049 87.121 117.599C89.427 114.164 88.511 109.51 85.075 107.204C81.641 104.9 76.987 105.813 74.68 109.25C50.536 145.222 37.774 187.173 37.774 230.567V240.481C16.713 241.864 0 259.429 0 280.834V400.851C0 423.157 18.147 441.305 40.454 441.305H52.499V447.799C52.499 460.689 62.985 471.175 75.875 471.175H108.474C121.364 471.175 131.85 460.688 131.85 447.799V233.886C131.85 221.529 122.21 211.387 110.056 210.569C119.911 138.556 182.504 83.258 256 83.258C329.192 83.258 392.089 138.682 401.947 210.57C389.792 211.385 380.15 221.528 380.15 233.887V447.8C380.15 460.69 390.636 471.176 403.526 471.176H436.125C449.015 471.176 459.502 460.689 459.502 447.8V441.306H471.546C493.853 441.306 512 423.158 512 400.852V280.834C512 259.429 495.287 241.865 474.227 240.479V240.479ZM40.454 426.322C26.41 426.322 14.983 414.896 14.983 400.851V280.834C14.983 266.79 26.409 255.363 40.454 255.363H52.499V426.322H40.454ZM116.866 233.886V447.799C116.866 452.427 113.101 456.192 108.473 456.192H75.874C71.246 456.192 67.481 452.427 67.481 447.799V233.886C67.481 229.258 71.246 225.493 75.874 225.493H108.473C113.101 225.493 116.866 229.258 116.866 233.886V233.886ZM497.017 400.851C497.017 414.895 485.591 426.322 471.546 426.322H459.502V309.401C459.502 305.264 456.148 301.91 452.011 301.91C447.873 301.91 444.52 305.264 444.52 309.401V447.799C444.52 452.427 440.755 456.192 436.126 456.192H403.527C398.899 456.192 395.134 452.427 395.134 447.799V233.886C395.134 229.258 398.899 225.493 403.527 225.493H436.126C440.755 225.493 444.52 229.258 444.52 233.886V273.882C444.52 278.019 447.874 281.373 452.011 281.373C456.149 281.373 459.502 278.019 459.502 273.882V255.363H471.546C485.59 255.363 497.017 266.789 497.017 280.834V400.851Z" fill="#FFF3F3"/>
<path d="M196.049 273.929C200.187 273.929 203.54 270.575 203.54 266.438V205.737C203.54 201.6 200.186 198.246 196.049 198.246C191.911 198.246 188.558 201.6 188.558 205.737V266.438C188.558 270.575 191.911 273.929 196.049 273.929V273.929Z" fill="#FFF3F3"/>
<path d="M345.927 208.717C341.789 208.717 338.436 212.071 338.436 216.208V255.966C338.436 260.103 341.79 263.457 345.927 263.457C350.064 263.457 353.418 260.103 353.418 255.966V216.208C353.419 212.071 350.065 208.717 345.927 208.717V208.717Z" fill="#FFF3F3"/>
<path d="M233.516 283.299V188.876C233.516 184.739 230.162 181.385 226.025 181.385C221.888 181.385 218.534 184.739 218.534 188.876V283.299C218.534 287.436 221.888 290.79 226.025 290.79C230.162 290.79 233.516 287.437 233.516 283.299V283.299Z" fill="#FFF3F3"/>
<path d="M263.491 274.869V197.307C263.491 193.17 260.137 189.816 256 189.816C251.863 189.816 248.509 193.17 248.509 197.307V274.869C248.509 279.006 251.863 282.36 256 282.36C260.137 282.36 263.491 279.006 263.491 274.869Z" fill="#FFF3F3"/>
<path d="M323.443 283.299V188.876C323.443 184.739 320.089 181.385 315.952 181.385C311.815 181.385 308.461 184.739 308.461 188.876V283.299C308.461 287.436 311.815 290.79 315.952 290.79C320.089 290.79 323.443 287.437 323.443 283.299Z" fill="#FFF3F3"/>
<path d="M293.467 245.495V226.68C293.467 222.543 290.113 219.189 285.976 219.189C281.839 219.189 278.485 222.543 278.485 226.68V245.495C278.485 249.632 281.839 252.986 285.976 252.986C290.113 252.986 293.467 249.633 293.467 245.495Z" fill="#FFF3F3"/>
<path d="M173.565 245.495V226.68C173.565 222.543 170.211 219.189 166.074 219.189C161.936 219.189 158.583 222.543 158.583 226.68V245.495C158.583 249.632 161.937 252.986 166.074 252.986C170.211 252.987 173.565 249.633 173.565 245.495Z" fill="#FFF3F3"/>
<path d="M298.343 394.979L239.719 361.132C235.497 358.694 230.456 358.694 226.234 361.132C222.012 363.569 219.492 367.935 219.492 372.81V440.504C219.492 445.379 222.013 449.744 226.234 452.182C230.456 454.62 235.497 454.62 239.719 452.182L298.343 418.335C302.565 415.897 305.085 411.531 305.085 406.656C305.085 401.781 302.565 397.416 298.343 394.979V394.979ZM234.475 437.908V375.405L288.604 406.657L234.475 437.908Z" fill="#FFF3F3"/>
</g>
<defs>
<clipPath id="clip0">
<rect width="512" height="512" fill="white"/>
</clipPath>
</defs>
</svg>
