<svg width="240" height="66" viewBox="0 0 240 66" fill="none" xmlns="http://www.w3.org/2000/svg">
<path fill-rule="evenodd" clip-rule="evenodd" d="M0 6.48401C6.5559 10.2573 13.1064 14.0387 19.6608 17.8147C19.8418 17.8826 20.0249 18.1307 20.2285 18.0142C22.401 16.7089 24.7195 15.6368 27.1415 14.8834C29.7356 14.0771 32.4614 13.6425 35.181 13.7666C37.2685 13.8495 39.3354 14.2478 41.3303 14.8593C43.7818 15.6141 46.1277 16.6952 48.3242 18.0163C48.3894 18.0636 48.4771 18.0752 48.5477 18.0259C53.9831 14.8902 59.4198 11.7579 64.8565 8.62359C66.0818 7.90922 67.3218 7.21616 68.5401 6.48948C66.9923 8.63732 65.4025 10.7556 63.838 12.8918C60.4635 17.4692 57.0912 22.048 53.7237 26.6308C49.84 31.8903 45.9563 37.1499 42.0735 42.4101C39.4718 45.9235 36.8886 49.4506 34.2767 52.9552C28.1829 44.7252 22.1096 36.4801 16.024 28.244C12.1425 22.9844 8.27187 17.7167 4.39095 12.4558C2.93006 10.4636 1.45136 8.48375 0 6.48401ZM7.34427 30.1491C8.2026 28.5846 9.2138 27.1107 10.3011 25.6985C11.1162 26.7481 11.8531 27.8607 12.6518 28.9247C12.2617 29.4793 11.8059 29.9866 11.4357 30.5556C9.30432 33.5981 7.7673 37.1608 7.56913 40.9053C7.51159 42.3127 7.65893 43.7387 8.10321 45.0796C8.77096 47.1308 10.1776 48.9495 12.0513 50.0348C14.2595 51.3681 16.9337 51.7301 19.4703 51.4977C21.6016 51.3161 23.6836 50.7244 25.6478 49.8908C26.1818 49.6851 26.6726 49.3822 27.2115 49.1895C29.5533 52.4534 31.8999 55.7145 34.2445 58.9764C34.2596 58.9764 34.2904 58.9764 34.3062 58.9764C35.9803 56.6482 37.6537 54.3187 39.3279 51.99C40.0154 51.0514 40.6687 50.0855 41.3789 49.1648C44.3014 50.6648 47.5612 51.6224 50.8656 51.5615C52.2991 51.5155 53.7384 51.2818 55.0752 50.7464C56.2808 50.2644 57.4129 49.561 58.3165 48.6218C59.2291 47.7059 59.9168 46.5789 60.3619 45.3682C60.936 43.7894 61.0958 42.0797 60.9605 40.4124C60.7124 37.3699 59.5719 34.4564 57.9891 31.8671C57.6863 31.3385 57.319 30.8504 56.9839 30.3424C56.6397 29.8563 56.2563 29.4011 55.903 28.9219C56.6958 27.8553 57.4381 26.7501 58.247 25.6971C60.0184 27.9745 61.5437 30.4562 62.647 33.1271C63.8191 35.9536 64.5375 39.0036 64.4611 42.0755C64.4058 43.6153 64.1611 45.1571 63.6305 46.6077C63.1419 47.9678 62.415 49.2464 61.4694 50.3412C59.8123 52.2793 57.5089 53.6201 55.0436 54.2358C54.1962 54.4785 53.3178 54.5978 52.443 54.6958C51.9885 54.7609 51.5272 54.7184 51.0726 54.7794C48.2927 54.8191 45.53 54.2851 42.8995 53.4077C40.0243 57.4907 37.1485 61.5732 34.2753 65.6584C31.4022 61.5732 28.5256 57.4907 25.6505 53.407C22.242 54.5395 18.5749 55.1305 15.0005 54.5525C12.5497 54.1707 10.1544 53.191 8.27943 51.543C6.46883 49.9936 5.1958 47.8561 4.59045 45.5581C3.92614 43.108 3.96454 40.5132 4.42388 38.0308C4.94423 35.2625 5.98213 32.6081 7.34427 30.1491ZM43.1251 46.6091C46.6447 41.7376 50.1485 36.8537 53.6732 31.9864C55.6051 34.3104 57.0835 37.1184 57.4094 40.1553C57.476 40.4939 57.361 40.8334 57.4122 41.1713C57.4466 40.9211 57.4107 40.6667 57.4718 40.4199C57.462 41.1898 57.476 41.9665 57.3246 42.7254C57.0821 44.1302 56.4126 45.4683 55.378 46.4569C54.1688 47.6168 52.5232 48.2393 50.8704 48.3867C48.1803 48.6246 45.4916 47.8519 43.1251 46.6091ZM11.147 40.217C11.4597 37.1595 12.9479 34.3371 14.8798 31.9918C18.4063 36.8578 21.9081 41.7424 25.429 46.6132C24.0757 47.3303 22.6265 47.8691 21.1266 48.1803C19.6026 48.482 18.0114 48.5402 16.4902 48.1927C15.4344 47.9417 14.415 47.4886 13.5745 46.7942C12.5201 45.942 11.7578 44.7437 11.4062 43.437C11.0833 42.3971 11.0846 41.294 11.147 40.217Z" fill="#CF972B" style="mix-blend-mode:lighten"/>
<path d="M90.1747 42.79C87.0527 43.07 84.4627 43.21 82.4047 43.21C81.0327 43.21 80.0247 42.888 79.3807 42.244C78.7367 41.6 78.4147 40.592 78.4147 39.22V32.5C78.4147 31.03 78.7437 29.966 79.4017 29.308C80.0737 28.636 81.1447 28.3 82.6147 28.3H90.1747V31.24H83.4547C82.6147 31.24 82.1947 31.66 82.1947 32.5V39.22C82.1947 39.542 82.2857 39.801 82.4677 39.997C82.6637 40.179 82.9087 40.27 83.2027 40.27C83.4967 40.27 83.8187 40.27 84.1687 40.27C84.5187 40.256 84.8827 40.242 85.2607 40.228C85.6387 40.214 86.0167 40.2 86.3947 40.186C86.7867 40.172 87.2837 40.144 87.8857 40.102C88.5017 40.06 89.2647 40.011 90.1747 39.955V42.79ZM94.4821 43H90.3871L95.9521 28.3H100.152L105.717 43H101.622L100.677 40.375H95.4271L94.4821 43ZM96.3721 37.645H99.7321L98.0521 32.71L96.3721 37.645ZM115.796 43V33.97L110.756 43H106.766V28.3H110.546V37.33L115.586 28.3H119.576V43H115.796ZM112.016 27.25C110.196 27.25 109.286 26.34 109.286 24.52V23.89H112.016V24.415C112.016 24.625 112.086 24.8 112.226 24.94C112.366 25.08 112.541 25.15 112.751 25.15H113.381C113.591 25.15 113.766 25.08 113.906 24.94C114.046 24.8 114.116 24.625 114.116 24.415V23.89H116.846V24.52C116.846 26.34 115.936 27.25 114.116 27.25H112.016ZM129.246 43H125.466V31.24H121.056V28.3H133.656V31.24H129.246V43ZM133.248 37.12V34.18H141.858V37.12H133.248ZM143.742 28.3H152.562C154.032 28.3 155.096 28.636 155.754 29.308C156.426 29.966 156.762 31.03 156.762 32.5V34.6C156.762 36.07 156.426 37.141 155.754 37.813C155.096 38.471 154.032 38.8 152.562 38.8H147.522V43H143.742V28.3ZM152.982 32.5C152.982 31.66 152.562 31.24 151.722 31.24H147.522V35.86H151.722C152.562 35.86 152.982 35.44 152.982 34.6V32.5ZM170.306 43H158.651V28.3H170.306V31.24H162.431V34.075H168.626V37.015H162.431V40.06H170.306V43ZM171.141 39.955C174.711 40.165 177.231 40.27 178.701 40.27C179.023 40.27 179.275 40.179 179.457 39.997C179.653 39.801 179.751 39.542 179.751 39.22V38.38C179.751 37.54 179.331 37.12 178.491 37.12H173.451V34.18H178.071C178.911 34.18 179.331 33.76 179.331 32.92V32.5C179.331 31.66 178.911 31.24 178.071 31.24H171.351V28.3H179.121C180.493 28.3 181.501 28.615 182.145 29.245C182.789 29.861 183.111 30.806 183.111 32.08C183.111 32.92 182.915 33.606 182.523 34.138C182.145 34.656 181.641 35.02 181.011 35.23C182.145 35.538 182.915 36.294 183.321 37.498C183.461 37.932 183.531 38.436 183.531 39.01V39.22C183.531 40.592 183.209 41.6 182.565 42.244C181.921 42.888 180.913 43.21 179.541 43.21C177.203 43.21 174.403 43.07 171.141 42.79V39.955ZM203.684 39.01C203.684 40.48 203.348 41.551 202.676 42.223C202.018 42.881 200.954 43.21 199.484 43.21H195.284C193.814 43.21 192.743 42.881 192.071 42.223C191.413 41.551 191.084 40.48 191.084 39.01V37.015H189.194V43H185.414V28.3H189.194V34.075H191.084V32.29C191.084 30.82 191.413 29.756 192.071 29.098C192.743 28.426 193.814 28.09 195.284 28.09H199.484C200.954 28.09 202.018 28.426 202.676 29.098C203.348 29.756 203.684 30.82 203.684 32.29V39.01ZM199.904 32.29C199.904 31.45 199.484 31.03 198.644 31.03H196.124C195.284 31.03 194.864 31.45 194.864 32.29V39.01C194.864 39.85 195.284 40.27 196.124 40.27H198.644C199.484 40.27 199.904 39.85 199.904 39.01V32.29ZM218.378 34.81L215.438 40.06H212.498L209.558 34.81V43H205.778V28.3H209.768L213.968 36.07L218.168 28.3H222.158V43H218.378V34.81ZM236.341 43H224.686V28.3H236.341V31.24H228.466V34.075H234.661V37.015H228.466V40.06H236.341V43Z" fill="#CF972B"/>
<path d="M15.472 3.056L14.478 1.698H10.264L9.59203 2.622V7.578L10.264 8.488H14.464L15.472 7.13L16.662 8.054L15.192 10H9.52203L8.09403 8.096V2.104L9.52203 0.199999H15.206L16.676 2.146L15.472 3.056ZM23.8077 5.856H23.6817L25.4597 10H23.8217L22.0717 5.856H19.4117V10H17.9417V0.199999H24.6897L25.4457 2.006V3.49L23.8077 5.856ZM23.9617 2.314L23.7097 1.698H19.4257V4.358H23.0517L23.9617 3.014V2.314ZM33.3694 10H28.1054L26.7054 8.124V0.199999H28.1894V7.606L28.8614 8.488H32.6134L33.2994 7.606V0.199999H34.7694V8.124L33.3694 10ZM42.1163 10H38.1403L36.0263 8.138V6.85H37.5103V7.466L38.6863 8.488H41.5703L42.7883 7.452V6.486L42.1303 5.926H37.6223L36.0263 4.554V2.034L38.1823 0.199999H42.1583L44.2723 2.048V3.56H42.7883V2.72L41.5983 1.698H38.7143L37.5103 2.72V3.84L38.1683 4.414H42.6623L44.2723 5.786V8.166L42.1163 10ZM51.3976 5.884H47.0156V10H45.5316V0.199999H52.2796L53.0216 2.034V3.504L51.3976 5.884ZM51.5376 2.328L51.2856 1.698H47.0156V4.372H50.6136L51.5376 3.028V2.328ZM55.6956 10L54.2816 8.096V2.104L55.6956 0.199999H60.4136V1.698H56.4236L55.7656 2.622V4.372H59.5036V5.884H55.7656V7.578L56.4236 8.488H60.4136V10H55.6956Z" fill="#CF972B"/>
</svg>
