<svg width="72" height="23" viewBox="0 0 72 23" fill="none" xmlns="http://www.w3.org/2000/svg">
<path d="M41.2202 8.06689C41.6015 8.06689 41.9718 8.12136 42.3313 8.23029C42.6799 8.35011 42.865 8.50261 42.865 8.68778C42.865 8.78582 42.8324 8.88385 42.767 8.971C42.7234 9.05814 42.6254 9.1235 42.5274 9.1235C42.3858 9.07992 42.2441 9.02546 42.1025 8.9601C41.8302 8.84028 41.5361 8.77493 41.2311 8.78582C40.9152 8.77493 40.5884 8.85118 40.3161 9.01457C40.0765 9.17796 39.9458 9.46117 39.9676 9.75528C39.9567 10.0276 40.0656 10.289 40.2725 10.4633C40.5013 10.6485 40.7627 10.801 41.0459 10.8881C41.3509 10.9971 41.6559 11.1169 41.9609 11.2585C42.2659 11.411 42.5274 11.6397 42.7234 11.9229C42.9413 12.2715 43.0502 12.6745 43.0393 13.0885C43.0393 13.7311 42.8541 14.2213 42.4729 14.5481C42.059 14.8967 41.5252 15.071 40.9806 15.0383C40.4904 15.0492 40.0002 14.9294 39.5754 14.6897C39.1833 14.4283 38.9872 14.1995 38.9872 13.9708C38.9872 13.8619 39.0308 13.7638 39.0961 13.6767C39.1506 13.6004 39.2268 13.546 39.3249 13.5351C39.412 13.546 39.4883 13.5895 39.5427 13.6549C39.6299 13.7311 39.717 13.8183 39.8151 13.9163C39.9458 14.0361 40.0983 14.1233 40.2617 14.1778C40.4795 14.2649 40.7192 14.2976 40.9479 14.2976C41.2965 14.3194 41.6342 14.2104 41.9065 14.0035C42.1461 13.7856 42.2768 13.4588 42.255 13.132C42.2659 12.8162 42.157 12.522 41.9391 12.2933C41.7213 12.0754 41.4599 11.9121 41.1658 11.8031C40.8608 11.6942 40.5667 11.5744 40.2508 11.4437C39.9458 11.3129 39.6843 11.1169 39.4774 10.8555C39.2595 10.5613 39.1397 10.2019 39.1615 9.83153C39.1506 9.53742 39.216 9.24332 39.3467 8.971C39.4556 8.74225 39.6299 8.55707 39.8477 8.42636C40.0547 8.30654 40.2726 8.21939 40.5013 8.15404C40.7409 8.09957 40.9806 8.06689 41.2202 8.06689ZM35.6431 8.57886C36.0135 8.90564 36.1986 9.42849 36.1986 10.1256V12.9469C36.1986 13.6549 36.0135 14.1669 35.6431 14.4936C34.7717 15.1581 33.5735 15.1581 32.7021 14.4936C32.3426 14.1669 32.1574 13.6549 32.1574 12.9469V10.1256C32.1574 9.4176 32.3426 8.90564 32.7021 8.57886C33.5735 7.92529 34.7717 7.92529 35.6431 8.57886ZM62.5592 8.08868C62.8206 8.08868 62.984 8.17582 63.0385 8.361L64.9665 14.5699V14.6244C64.9665 14.7224 64.9012 14.8095 64.814 14.8531C64.716 14.9185 64.5962 14.9511 64.4654 14.9402C64.3456 14.9511 64.2258 14.8858 64.1822 14.766L63.7683 13.3935H61.3065L60.8926 14.766C60.8599 14.8858 60.7292 14.962 60.6094 14.9511C60.5005 14.9511 60.3915 14.9185 60.2935 14.8531C60.1955 14.8095 60.141 14.7224 60.141 14.6135C60.141 14.5917 60.1519 14.559 60.1628 14.5372L62.0799 8.361C62.1344 8.17582 62.2978 8.08868 62.5592 8.08868ZM52.8428 8.08868C53.0934 8.08868 53.3003 8.25207 53.4746 8.58975L54.9451 11.411L56.4266 8.58975C56.6117 8.26296 56.8187 8.08868 57.0583 8.08868C57.2435 8.056 57.4178 8.18672 57.4505 8.37189C57.4614 8.40457 57.4614 8.43725 57.4505 8.46993V14.6461C57.4505 14.7333 57.4069 14.8095 57.3307 14.8531C57.1564 14.9511 56.9494 14.9511 56.7751 14.8531C56.6989 14.8095 56.6553 14.7333 56.6553 14.6461V9.73349L55.2393 12.3913C55.1957 12.522 55.0759 12.6201 54.9343 12.6201C54.8035 12.6092 54.6837 12.522 54.6401 12.3913L53.2241 9.67903V14.6461C53.2241 14.7333 53.1805 14.8095 53.1043 14.8531C53.028 14.9076 52.93 14.9402 52.8428 14.9402C52.7448 14.9402 52.6468 14.9185 52.5705 14.864C52.4834 14.8313 52.4289 14.7442 52.4398 14.657V8.48082C52.4071 8.29564 52.5378 8.12136 52.723 8.08868C52.7666 8.07779 52.8102 8.07779 52.8428 8.08868ZM68.071 8.07779C68.1908 8.07779 68.3106 8.12136 68.4086 8.19761C68.5176 8.30654 68.6156 8.43725 68.6701 8.57886L71.012 13.1538V8.35011C71.012 8.26296 71.0556 8.18672 71.1318 8.15404C71.3061 8.056 71.5131 8.056 71.6874 8.15404C71.7636 8.19761 71.8072 8.27386 71.8072 8.35011V14.657C71.8072 14.7442 71.7636 14.8204 71.6874 14.864C71.6002 14.9185 71.5131 14.9402 71.4151 14.9402C71.1972 14.9294 71.0011 14.7877 70.9249 14.5808L68.4631 9.86421V14.657C68.4631 14.7442 68.4195 14.8204 68.3542 14.864C68.1799 14.962 67.9729 14.962 67.7986 14.864C67.7224 14.8204 67.6788 14.7442 67.6788 14.657V8.35011C67.6788 8.16493 67.8095 8.07779 68.071 8.07779ZM25.6435 8.07779H27.4191C27.9419 8.056 28.4648 8.23029 28.8678 8.56796C29.2273 8.89475 29.4124 9.40671 29.4124 10.1038V10.191C29.4124 10.8881 29.2273 11.411 28.8569 11.7378C28.443 12.0754 27.9201 12.2606 27.3864 12.2279H26.1228V14.657C26.1228 14.7442 26.0792 14.8204 26.003 14.864C25.8287 14.962 25.6217 14.962 25.4475 14.864C25.3712 14.8204 25.3276 14.7442 25.3276 14.657V8.35011C25.3276 8.27386 25.3603 8.2085 25.4148 8.15404C25.4801 8.09957 25.5564 8.06689 25.6435 8.07779ZM49.477 8.07779C49.5641 8.07779 49.6404 8.11047 49.6839 8.18671C49.7384 8.25207 49.7602 8.33921 49.7602 8.42636C49.7602 8.5135 49.7384 8.61153 49.6839 8.68778C49.6404 8.76403 49.5641 8.79671 49.477 8.79671H47.9846V14.657C47.9846 14.7442 47.9411 14.8204 47.8648 14.864C47.6905 14.962 47.4836 14.962 47.3093 14.864C47.233 14.8204 47.1895 14.7442 47.1895 14.657V8.79671H45.6754C45.5882 8.79671 45.512 8.76403 45.4684 8.68778C45.414 8.61153 45.3813 8.52439 45.3813 8.42636C45.3813 8.33921 45.4031 8.25207 45.4575 8.18671C45.5011 8.11047 45.5773 8.07779 45.6645 8.07779H49.477ZM34.1835 8.78582C33.3665 8.78582 32.9635 9.22153 32.9635 10.1147L32.9526 12.9469C32.9526 13.8292 33.3556 14.2758 34.1835 14.2758C34.5212 14.2976 34.8479 14.1778 35.0985 13.949C35.3381 13.6767 35.447 13.3172 35.4253 12.9469V10.1147C35.4579 9.75528 35.3381 9.39582 35.0985 9.1126C34.8479 8.88385 34.5212 8.76403 34.1835 8.78582ZM62.5592 9.23242L61.5026 12.7399H63.6049L62.5592 9.23242ZM27.3864 8.79671H26.1228L26.1119 11.5744H27.3864C27.7241 11.5962 28.0617 11.4763 28.3014 11.2367C28.541 10.9644 28.6608 10.6049 28.6282 10.2346V10.1256C28.6608 9.76617 28.541 9.40671 28.3014 9.1235C28.0508 8.89475 27.7241 8.77493 27.3864 8.79671Z" fill="#FF6C37"/>
<path d="M21.7004 12.9251C22.4629 6.95586 18.2474 1.49857 12.289 0.736078C6.33068 -0.0264174 0.851601 4.18909 0.0891056 10.1475C-0.67339 16.1058 3.54212 21.574 9.50048 22.3474C15.4697 23.1099 20.927 18.8944 21.7004 12.9251Z" fill="#FF6C37"/>
<path d="M14.8276 7.64144L10.2308 12.2382L8.93457 10.942C13.4551 6.42145 13.9017 6.81359 14.8276 7.64144Z" fill="white"/>
<path d="M10.2305 12.3474C10.1978 12.3474 10.1761 12.3365 10.1543 12.3147L8.84713 11.0185C8.80356 10.9749 8.80356 10.9095 8.84713 10.866C13.4439 6.26921 13.9232 6.70492 14.8926 7.57634C14.9144 7.59813 14.9253 7.61991 14.9253 7.65259C14.9253 7.68527 14.9144 7.70706 14.8926 7.72884L10.2959 12.3147C10.285 12.3365 10.2523 12.3474 10.2305 12.3474ZM9.08677 10.9422L10.2305 12.086L14.6639 7.65259C13.8578 6.93367 13.3132 6.71581 9.08677 10.9422Z" fill="#FF6C37"/>
<path d="M11.5486 13.5565L10.2959 12.3038L14.8927 7.70703C16.1235 8.94881 14.2827 10.964 11.5486 13.5565Z" fill="white"/>
<path d="M11.5487 13.6654C11.516 13.6654 11.4942 13.6545 11.4725 13.6328L10.2198 12.3801C10.198 12.3583 10.198 12.3365 10.198 12.3038C10.198 12.2712 10.2089 12.2494 10.2307 12.2276L14.8274 7.63082C14.871 7.58725 14.9364 7.58725 14.9799 7.63082C15.2631 7.89225 15.4156 8.2626 15.4048 8.64385C15.383 9.85295 14.0105 11.3888 11.6358 13.6328C11.6032 13.6545 11.5705 13.6654 11.5487 13.6654ZM10.4485 12.3038C11.1457 13.0119 11.4398 13.2951 11.5487 13.404C13.3787 11.6612 15.1542 9.87474 15.1651 8.64385C15.176 8.36064 15.0671 8.07743 14.8819 7.85957L10.4485 12.3038Z" fill="#FF6C37"/>
<path d="M8.95623 10.9748L9.88211 11.9007C9.9039 11.9224 9.9039 11.9442 9.88211 11.966C9.87122 11.9769 9.87122 11.9769 9.86033 11.9769L7.9432 12.3908C7.84516 12.4017 7.75802 12.3364 7.73623 12.2383C7.72534 12.1839 7.74712 12.1294 7.7798 12.0967L8.89087 10.9857C8.91265 10.9639 8.94533 10.953 8.95623 10.9748Z" fill="white"/>
<path d="M7.91041 12.4997C7.74702 12.4997 7.6272 12.3689 7.6272 12.2056C7.6272 12.1293 7.65988 12.0531 7.71434 11.9986L8.8254 10.8875C8.89076 10.8331 8.9779 10.8331 9.04326 10.8875L9.96915 11.8134C10.0345 11.8679 10.0345 11.9659 9.96915 12.0313C9.94736 12.0531 9.92558 12.0639 9.8929 12.0748L7.97577 12.4888C7.95398 12.4888 7.9322 12.4997 7.91041 12.4997ZM8.92344 11.0945L7.85595 12.162C7.83416 12.1838 7.82327 12.2164 7.84505 12.2491C7.85595 12.2818 7.88862 12.2927 7.9213 12.2818L9.71861 11.8897L8.92344 11.0945Z" fill="#FF6C37"/>
<path d="M17.2564 5.09301C16.5593 4.41765 15.4373 4.43944 14.762 5.14747C14.0866 5.8555 14.1084 6.96657 14.8164 7.64192C15.3937 8.19745 16.2652 8.29549 16.9514 7.88156L15.7096 6.63978L17.2564 5.09301Z" fill="white"/>
<path d="M16.0364 8.24077C15.0016 8.24077 14.1628 7.40203 14.1628 6.36721C14.1628 5.3324 15.0016 4.49365 16.0364 4.49365C16.5157 4.49365 16.9841 4.67883 17.3326 5.01651C17.3544 5.03829 17.3653 5.06008 17.3653 5.09276C17.3653 5.12543 17.3544 5.14722 17.3326 5.16901L15.8621 6.63953L17.0168 7.79417C17.0603 7.83774 17.0603 7.9031 17.0168 7.94667C17.0059 7.95756 17.0059 7.95756 16.995 7.96845C16.7118 8.14274 16.3741 8.24077 16.0364 8.24077ZM16.0364 4.7224C15.1214 4.7224 14.3807 5.46311 14.3916 6.37811C14.3916 7.2931 15.1323 8.03381 16.0473 8.02292C16.2978 8.02292 16.5484 7.96845 16.7771 7.84863L15.6334 6.71578C15.6116 6.694 15.6007 6.67221 15.6007 6.63953C15.6007 6.60685 15.6116 6.58507 15.6334 6.56328L17.093 5.10365C16.7989 4.85311 16.4285 4.7224 16.0364 4.7224Z" fill="#FF6C37"/>
<path d="M17.2892 5.1253L17.2674 5.10352L15.7097 6.6394L16.9406 7.87029C17.0604 7.79404 17.1802 7.70689 17.2783 7.60886C17.9754 6.92261 17.9754 5.81155 17.2892 5.1253Z" fill="white"/>
<path d="M16.9515 7.9903C16.9189 7.9903 16.8971 7.97941 16.8753 7.95762L15.6335 6.71584C15.6117 6.69406 15.6008 6.67227 15.6008 6.63959C15.6008 6.60691 15.6117 6.58513 15.6335 6.56334L17.1803 5.01657C17.2239 4.97299 17.2892 4.97299 17.3328 5.01657L17.3655 5.03835C18.0953 5.76817 18.0953 6.94459 17.3764 7.6853C17.2674 7.79423 17.1476 7.89226 17.0169 7.96851C16.9842 7.97941 16.9624 7.9903 16.9515 7.9903ZM15.8623 6.63959L16.9624 7.73976C17.0496 7.6853 17.1367 7.60905 17.2021 7.54369C17.823 6.9228 17.8556 5.90977 17.2565 5.25621L15.8623 6.63959Z" fill="#FF6C37"/>
<path d="M15.0125 7.83767C14.7511 7.57624 14.3263 7.57624 14.0648 7.83767L9.95825 11.9443L10.6445 12.6305L14.9907 8.81802C15.2739 8.57838 15.2957 8.15356 15.0561 7.87035C15.0343 7.85946 15.0234 7.84856 15.0125 7.83767Z" fill="white"/>
<path d="M10.6338 12.7395C10.6011 12.7395 10.5793 12.7286 10.5575 12.7068L9.8713 12.0205C9.82773 11.977 9.82773 11.9116 9.8713 11.868L13.9779 7.76146C14.2829 7.45647 14.7731 7.45647 15.0781 7.76146C15.3831 8.06646 15.3831 8.55664 15.0781 8.86164C15.0672 8.87253 15.0563 8.88342 15.0454 8.89431L10.6992 12.7068C10.6883 12.7286 10.6665 12.7395 10.6338 12.7395ZM10.1109 11.9443L10.6447 12.478L14.9147 8.73092C15.1543 8.53485 15.1761 8.17539 14.98 7.93575C14.784 7.69611 14.4245 7.67432 14.1848 7.87039C14.174 7.88128 14.1631 7.89218 14.1413 7.90307L10.1109 11.9443Z" fill="#FF6C37"/>
<path d="M6.81007 16.6173C6.7665 16.6391 6.74471 16.6826 6.75561 16.7262L6.94078 17.5105C6.98435 17.6194 6.919 17.7501 6.79918 17.7828C6.71203 17.8155 6.614 17.7828 6.55954 17.7175L5.36133 16.5301L9.27184 12.6196L10.6225 12.6414L11.5375 13.5564C11.3197 13.7416 10.0017 15.016 6.81007 16.6173Z" fill="white"/>
<path d="M6.72316 17.8918C6.63601 17.8918 6.54887 17.8591 6.49441 17.7937L5.30709 16.6064C5.28531 16.5846 5.27441 16.5629 5.27441 16.5302C5.27441 16.4975 5.28531 16.4757 5.30709 16.4539L9.21761 12.5434C9.23939 12.5216 9.27207 12.5107 9.29386 12.5107L10.6446 12.5325C10.6772 12.5325 10.699 12.5434 10.7208 12.5652L11.6358 13.4802C11.6576 13.502 11.6685 13.5347 11.6685 13.5673C11.6685 13.6 11.6576 13.6218 11.6249 13.6436L11.5487 13.7089C10.394 14.722 8.82547 15.735 6.87565 16.7045L7.06083 17.4779C7.09351 17.6195 7.02815 17.772 6.89744 17.8482C6.83208 17.8809 6.77762 17.8918 6.72316 17.8918ZM5.52495 16.5302L6.64691 17.6412C6.67958 17.6957 6.74494 17.7175 6.79941 17.6848C6.85387 17.6521 6.87565 17.5868 6.84298 17.5323L6.6578 16.748C6.63601 16.65 6.67958 16.5629 6.76673 16.5193C8.69475 15.5498 10.2524 14.5477 11.3962 13.5565L10.5901 12.7504L9.33743 12.7286L5.52495 16.5302Z" fill="#FF6C37"/>
<path d="M4.43587 17.4671L5.37265 16.5303L6.76693 17.9246L4.5448 17.7721C4.44676 17.7612 4.3814 17.674 4.3923 17.576C4.3923 17.5324 4.40319 17.4888 4.43587 17.4671Z" fill="white"/>
<path d="M6.76668 18.0223L4.53366 17.8698C4.37027 17.8589 4.26134 17.7173 4.27223 17.5539C4.28313 17.4885 4.30491 17.4232 4.35938 17.3796L5.29616 16.4428C5.33973 16.3993 5.40508 16.3993 5.44866 16.4428L6.84293 17.8371C6.87561 17.8698 6.8865 17.9134 6.86472 17.9569C6.84293 18.0005 6.81025 18.0223 6.76668 18.0223ZM5.37241 16.6825L4.51187 17.543C4.4792 17.5648 4.4792 17.6193 4.51187 17.641C4.52277 17.6519 4.53366 17.6628 4.55545 17.6628L6.48347 17.7935L5.37241 16.6825Z" fill="#FF6C37"/>
<path d="M8.89067 13.1206C8.82531 13.1206 8.78174 13.0662 8.78174 13.0117C8.78174 12.979 8.79263 12.9573 8.81442 12.9355L9.87102 11.8789C9.91459 11.8353 9.97995 11.8353 10.0235 11.8789L10.7098 12.5651C10.7424 12.5978 10.7533 12.6305 10.7424 12.674C10.7315 12.7067 10.6989 12.7394 10.6553 12.7503L8.91245 13.1206C8.90156 13.1206 8.89067 13.1206 8.89067 13.1206ZM9.94727 12.1076L9.22834 12.8265L10.4048 12.576L9.94727 12.1076Z" fill="#FF6C37"/>
<path d="M10.6226 12.6412L9.42436 12.9026C9.33722 12.9244 9.25008 12.8699 9.22829 12.7828C9.2174 12.7283 9.22829 12.6739 9.27186 12.6303L9.93633 11.9658L10.6226 12.6412Z" fill="white"/>
<path d="M9.40269 13.0117C9.25019 13.0117 9.13037 12.8919 9.13037 12.7394C9.13037 12.6632 9.16305 12.5978 9.20662 12.5433L9.87108 11.8789C9.91465 11.8353 9.98001 11.8353 10.0236 11.8789L10.7098 12.5651C10.7425 12.5978 10.7534 12.6305 10.7425 12.674C10.7316 12.7067 10.6989 12.7394 10.6554 12.7503L9.45716 13.0117C9.43537 13.0117 9.41358 13.0117 9.40269 13.0117ZM9.94733 12.1076L9.35912 12.6958C9.33733 12.7176 9.33733 12.7394 9.34823 12.7612C9.35912 12.783 9.38091 12.7939 9.41358 12.7939L10.4157 12.576L9.94733 12.1076Z" fill="#FF6C37"/>
<path d="M17.3001 6.17086C17.2783 6.1055 17.202 6.07283 17.1367 6.09461C17.0713 6.1164 17.0386 6.19265 17.0604 6.258C17.0604 6.2689 17.0713 6.27979 17.0713 6.29068C17.1367 6.4214 17.1149 6.58479 17.0277 6.70461C16.9842 6.75907 16.9951 6.83532 17.0386 6.87889C17.0931 6.92246 17.1693 6.91157 17.2129 6.85711C17.3763 6.65014 17.409 6.38872 17.3001 6.17086Z" fill="#FF6C37"/>
</svg>
