<svg width="93" height="17" viewBox="0 0 93 17" fill="none" xmlns="http://www.w3.org/2000/svg">
<path d="M1.65019 0.586374C1.15067 0.665506 0.591795 0.823771 0.299995 0.972144L0.018086 1.11063L0.00324865 8.41553C-0.00169712 12.4315 -0.00169712 15.7204 0.00819442 15.7204C0.018086 15.7204 0.112056 15.6809 0.220862 15.6265C0.868758 15.3149 1.66008 15.2011 2.88663 15.2456C3.88073 15.2753 4.34563 15.3544 5.44854 15.666C6.95205 16.0963 7.72854 16.1903 9.42989 16.1507C10.1569 16.1359 10.7702 16.0963 11.0472 16.0468C11.4923 15.9727 11.9374 15.854 12.0462 15.7847C12.0858 15.755 12.1105 13.8262 12.1352 8.29683L12.1748 0.848499L11.7346 0.937523C10.5575 1.16997 8.42589 1.29362 7.32793 1.18481C6.99162 1.15019 6.28932 1.03644 5.77002 0.927632C5.24576 0.818825 4.63743 0.695181 4.41982 0.655614C3.94008 0.566591 2.07058 0.522079 1.65019 0.586374ZM4.77097 1.57058C5.35457 1.71401 6.35362 1.86238 7.18945 1.92668C8.26268 2.01076 10.1668 1.95141 11.2351 1.79809L11.4181 1.77336V8.40069V15.033L11.2549 15.1022C10.7949 15.2901 10.2855 15.3495 9.01939 15.3495C8.23795 15.3495 7.62963 15.3248 7.36255 15.2852C6.75917 15.1912 5.498 14.9044 4.86494 14.7164L4.32091 14.5582L4.30607 9.66186C4.29123 5.52225 4.32585 1.47661 4.37036 1.47661C4.37531 1.47661 4.5583 1.52112 4.77097 1.57058ZM3.44056 1.93162C3.58893 2.0701 3.59388 2.31739 3.4455 2.45093C3.34659 2.53501 3.218 2.55974 2.58989 2.60425C1.98156 2.64876 1.76889 2.68338 1.4029 2.80702C1.03691 2.93561 0.933053 2.95045 0.829192 2.90594C0.542338 2.79219 0.522554 2.45587 0.78468 2.26299C1.11605 2.0157 1.94694 1.83765 2.78277 1.82776C3.27735 1.82282 3.3367 1.83271 3.44056 1.93162ZM3.25262 3.70715C3.43067 3.77145 3.50485 3.88026 3.50485 4.09292C3.50485 4.33032 3.31197 4.44407 2.91631 4.44407C2.40689 4.44407 1.78373 4.53804 1.39796 4.67158C0.947891 4.8249 0.819301 4.8249 0.690711 4.66169C0.49288 4.40945 0.581904 4.18689 0.947891 4.02368C1.43258 3.81596 1.97661 3.71705 2.96576 3.6577C3.03501 3.6577 3.1636 3.67748 3.25262 3.70715ZM3.35648 5.59644C3.50485 5.67063 3.57904 5.86351 3.53453 6.0465C3.48507 6.24433 3.24767 6.32347 2.70364 6.32347C2.20412 6.32347 1.72438 6.40754 1.23969 6.58065C0.957782 6.68451 0.923162 6.68945 0.794572 6.62021C0.478043 6.43722 0.542338 6.08112 0.933053 5.89318C1.50182 5.61622 3.02511 5.42828 3.35648 5.59644Z" fill="#CF972B"/>
<path d="M5.19626 2.52022C4.98359 2.59936 4.92919 2.87137 5.08745 3.0692C5.22593 3.24725 6.03704 3.44014 7.21413 3.57862C8.40112 3.7171 10.3497 3.64291 10.597 3.45003C10.78 3.3066 10.7899 3.11866 10.6218 2.95051L10.4833 2.80708L10.0233 2.84665C9.77109 2.86643 9.08363 2.88621 8.50003 2.88621C7.4268 2.88127 6.69483 2.80708 6.01231 2.63398C5.53257 2.51033 5.31001 2.48066 5.19626 2.52022Z" fill="#CF972B"/>
<path d="M5.11229 4.46878C4.95897 4.61715 4.95402 4.81004 5.1024 4.95841C5.39914 5.25516 7.66925 5.57663 9.01945 5.51234C10.1421 5.45793 10.523 5.40848 10.6367 5.29967C10.7752 5.15624 10.7702 4.89412 10.6219 4.77542C10.5131 4.69134 10.4587 4.68639 9.88495 4.72596C8.3666 4.82488 7.03619 4.7408 5.88877 4.46878C5.26066 4.31546 5.26066 4.31546 5.11229 4.46878Z" fill="#CF972B"/>
<path d="M5.09745 6.33824C4.89467 6.5509 4.9738 6.81303 5.27055 6.93173C5.47827 7.01086 6.29432 7.18396 6.86803 7.2631C7.51593 7.35707 8.63367 7.39663 9.35576 7.35707C10.3004 7.30266 10.523 7.26804 10.6318 7.15924C10.7604 7.03064 10.7554 6.75863 10.6219 6.63993C10.5131 6.54101 10.5576 6.54101 9.36565 6.6152C8.18361 6.68444 6.92738 6.58058 5.83931 6.3234C5.31012 6.19975 5.22604 6.19975 5.09745 6.33824Z" fill="#CF972B"/>
<path d="M5.20633 8.11874C4.97388 8.23744 4.92442 8.45505 5.08763 8.65783C5.22611 8.83588 6.03722 9.02876 7.21431 9.16724C8.4013 9.30572 10.3499 9.23154 10.5972 9.03865C10.7802 8.89522 10.7901 8.70729 10.6219 8.53913L10.4835 8.3957L10.0235 8.43527C9.77127 8.45505 9.08381 8.47483 8.50021 8.47483C7.39236 8.46989 6.74446 8.40559 5.87895 8.19787C5.3003 8.05939 5.31019 8.05939 5.20633 8.11874Z" fill="#CF972B"/>
<path d="M43.2292 4.03361L43.244 4.56775L43.605 4.59743C44.1293 4.63699 44.1293 4.63699 44.1491 5.54207L44.1688 6.28888L44.0254 6.25921C42.6604 5.96246 41.602 6.2048 40.8156 6.99118C40.054 7.75283 39.7028 8.9497 39.8116 10.3889C39.8314 10.651 39.8858 11.0071 39.9303 11.1802C40.0391 11.6254 40.3606 12.2634 40.5931 12.5205C40.9937 12.9508 41.6564 13.1981 42.4279 13.1981C43.1649 13.1981 43.61 13.0151 44.0502 12.5304C44.1886 12.3821 44.3123 12.2584 44.3271 12.2584C44.342 12.2584 44.3568 12.4365 44.3568 12.6541V13.0497H45.4201H46.4835V12.5057V11.9617H46.1867C45.9543 11.9617 45.8702 11.9419 45.7911 11.8628C45.6921 11.7638 45.6921 11.6996 45.6921 7.63413V3.50441H44.4557H43.2143L43.2292 4.03361ZM43.8869 7.40662L44.1342 7.48576V9.26623C44.1342 10.2455 44.1194 11.1258 44.0947 11.2248C44.0452 11.4671 43.7682 11.7787 43.4814 11.9122C43.1896 12.0556 42.606 12.0705 42.3191 11.9419C41.7998 11.7193 41.5179 11.1753 41.4437 10.2603C41.3349 8.90519 41.7059 7.78745 42.3785 7.4363C42.7247 7.25825 43.3973 7.24341 43.8869 7.40662Z" fill="#CF972B"/>
<path d="M53.7687 4.083C53.1555 4.10279 53.195 4.07806 53.1357 4.50339L53.1011 4.73584L53.289 4.7853C53.3978 4.81003 53.6105 4.85949 53.7687 4.89411C54.0012 4.94357 54.0506 4.97324 54.0506 5.05732C54.0506 5.11667 53.7737 6.90704 53.4324 9.03866C53.0912 11.1703 52.8142 12.9458 52.8142 12.9804C52.8142 13.0348 52.9329 13.0497 53.3582 13.0497C53.6599 13.0497 53.9023 13.0348 53.9023 13.0101C53.9023 12.9903 53.9913 12.5056 54.0952 11.9369C54.3029 10.834 54.4661 10.2899 54.8172 9.57775C55.3761 8.45506 55.9152 7.87641 56.5285 7.75276C56.8747 7.68352 57.122 7.77255 57.2407 8.00994C57.3841 8.27702 57.3346 8.80127 56.9736 10.9725C56.7857 12.1001 56.6373 13.0299 56.6422 13.0299C56.6768 13.0695 58.6898 12.926 58.7343 12.8815C58.764 12.8519 58.8035 12.7035 58.8233 12.5502L58.8579 12.2732L58.4425 12.2138C58.215 12.1792 57.9924 12.1347 57.9578 12.11C57.8984 12.0754 57.9331 11.7935 58.1556 10.4185C58.3782 9.07328 58.4276 8.66279 58.4276 8.1781C58.4276 7.65385 58.4128 7.55493 58.3089 7.34721C58.0814 6.87736 57.577 6.67459 56.8895 6.7735C56.0487 6.8922 55.2821 7.54504 54.6441 8.69741C54.5057 8.94964 54.4513 9.02383 54.4661 8.91997C54.4809 8.83589 54.6738 7.75771 54.8914 6.52127C55.109 5.28482 55.297 4.22148 55.3118 4.15719C55.3415 4.03849 55.3959 4.03849 53.7687 4.083Z" fill="#CF972B"/>
<path d="M18.985 4.71606V5.28482H19.1284C19.2026 5.28482 19.3708 5.29966 19.4994 5.3145L19.7269 5.34912V8.52925C19.7269 12.1941 19.7714 11.8775 19.2372 11.9418L18.9355 11.9765V12.5106V13.0497H20.5924H22.2492V12.4809V11.9122H22.0316C21.9129 11.9122 21.7151 11.8973 21.5865 11.8825L21.359 11.8479V10.6906V9.52829L22.1404 9.54808C23.2136 9.56786 23.1246 9.49862 23.7923 10.923C23.9753 11.3187 24.1286 11.6649 24.1286 11.6945C24.1286 11.8033 23.9506 11.9072 23.6934 11.9418L23.4362 11.9765V12.5106V13.0497H25.0683H26.7004V12.4809V11.9171L26.3295 11.9023L25.9536 11.8874L25.4046 10.6906C24.8606 9.49862 24.7023 9.24144 24.3808 9.03866L24.2621 8.96448L24.5539 8.79632C25.1524 8.46001 25.6321 7.8319 25.7657 7.21367C25.8497 6.80812 25.8003 5.95745 25.6667 5.61619C25.459 5.0771 25.0683 4.69133 24.5391 4.4935C23.7478 4.19676 23.2087 4.1473 20.805 4.1473H18.985V4.71606ZM23.3224 5.54695C23.9258 5.70521 24.1781 6.0712 24.1781 6.76361C24.1781 7.41645 23.9308 7.87641 23.4609 8.09897C23.1889 8.22756 22.4767 8.31164 21.8536 8.29185L21.3837 8.27702L21.3689 6.84769L21.359 5.41836L22.2096 5.44803C22.6844 5.46287 23.179 5.50738 23.3224 5.54695Z" fill="#CF972B"/>
<path d="M66.7118 4.70616V5.26998L67.1075 5.3046L67.5081 5.33922L67.4932 8.53419L67.4784 11.7242L67.3647 11.8132C67.3004 11.8676 67.1273 11.922 66.9542 11.9418L66.6624 11.9764V12.5155V13.0596L68.9275 13.0348C71.0542 13.0151 71.2125 13.0101 71.5834 12.9063C72.3698 12.6936 73.1809 12.1842 73.6013 11.6401C74.0414 11.0664 74.3728 10.1564 74.4866 9.19198C74.5608 8.52924 74.5113 7.39172 74.3827 6.89219C74.0167 5.50738 73.0919 4.63692 71.618 4.28577C71.2273 4.1918 70.9899 4.18191 68.9522 4.16213L66.7118 4.1374V4.70616ZM71.163 5.55684C72.0928 5.84864 72.5824 6.4174 72.7951 7.46096C72.9781 8.35614 72.8891 9.67172 72.5973 10.3542C72.3005 11.0516 71.6972 11.5659 71.0245 11.7094C70.8811 11.739 70.3865 11.7638 69.9266 11.7638H69.0858V8.63311C69.0858 6.90703 69.1006 5.48265 69.1253 5.46287C69.1946 5.38868 70.8712 5.46287 71.163 5.55684Z" fill="#CF972B"/>
<path d="M50.6182 5.33921C50.3758 5.38867 50.1681 5.43812 50.1632 5.44802C50.1533 5.45791 50.0989 5.77444 50.0395 6.15526C49.9802 6.53114 49.9208 6.85756 49.901 6.87734C49.8862 6.89713 49.629 6.93669 49.3273 6.96637C49.0306 7.00099 48.7685 7.05044 48.7536 7.07517C48.7338 7.10485 48.7042 7.23838 48.6893 7.36697C48.6695 7.50051 48.6448 7.64394 48.63 7.6835C48.6052 7.7478 48.6844 7.75769 49.174 7.75769C49.7032 7.75769 49.7477 7.76264 49.7477 7.85166C49.7477 7.90112 49.6241 8.72212 49.4757 9.6717C49.3224 10.6361 49.2037 11.556 49.2037 11.7687C49.2037 12.8419 49.7823 13.3266 50.7814 13.0942C51.0831 13.0249 51.8744 12.654 51.8744 12.5798C51.8744 12.5254 51.726 12.0556 51.7013 12.0209C51.6914 12.0111 51.5381 12.0506 51.3551 12.105C50.9941 12.2188 50.638 12.2386 50.4896 12.1594C50.3511 12.0852 50.2769 11.744 50.3115 11.3928C50.3462 11.0911 50.816 8.07422 50.8605 7.8665C50.8853 7.75769 50.9001 7.75769 51.6964 7.75769H52.5025L52.5322 7.54502C52.547 7.43127 52.5767 7.24333 52.5965 7.12463L52.6311 6.91691H51.8299C51.1029 6.91691 51.0336 6.90702 51.0336 6.82789C51.0336 6.78337 51.088 6.42233 51.1573 6.02667C51.2265 5.63101 51.2809 5.2947 51.2809 5.26997C51.2809 5.21556 51.1078 5.23535 50.6182 5.33921Z" fill="#CF972B"/>
<path d="M29.396 6.20475C28.491 6.39764 27.759 6.98124 27.3238 7.86158C27.0567 8.41056 26.9627 8.75182 26.8984 9.38983C26.8094 10.3196 26.9924 11.3088 27.3683 11.9369C27.7095 12.5007 28.0854 12.7975 28.7531 13.0349C29.124 13.1634 29.2032 13.1684 29.9648 13.1733C30.6869 13.1733 30.8254 13.1585 31.1518 13.0596C31.5771 12.9211 32.2844 12.5798 32.319 12.4908C32.3338 12.4414 31.9431 11.5066 31.8689 11.4275C31.864 11.4225 31.6909 11.5017 31.4931 11.6105C30.949 11.9023 30.6374 11.9765 30.0687 11.9517C29.5444 11.927 29.2279 11.8083 28.9658 11.5313C28.7927 11.3533 28.5948 10.9131 28.5553 10.6114L28.5206 10.379H28.8421C29.9994 10.379 31.2705 9.96848 31.77 9.43434C32.3586 8.80623 32.502 7.78245 32.1063 7.05048C31.7057 6.3185 30.5632 5.96241 29.396 6.20475ZM30.4841 7.33239C30.7314 7.43625 30.855 7.6687 30.855 8.03469C30.855 8.29187 30.8353 8.36605 30.7067 8.53915C30.5435 8.76666 30.1676 9.00406 29.7967 9.11781C29.5395 9.19694 28.5355 9.31069 28.491 9.27113C28.4366 9.21178 28.5899 8.52432 28.7234 8.23252C29.0053 7.60935 29.4702 7.26315 30.0291 7.26315C30.1874 7.26315 30.3901 7.29282 30.4841 7.33239Z" fill="#CF972B"/>
<path d="M35.7513 6.16021C34.2181 6.36299 33.2883 7.24828 32.9569 8.82103C32.8976 9.08316 32.8679 9.4442 32.8679 9.9091C32.8679 11.2989 33.1746 12.1396 33.9016 12.7331C34.2478 13.0101 34.6682 13.1535 35.2716 13.1832C36.1025 13.2327 36.5822 13.0596 37.0966 12.5403L37.3834 12.2485V12.6491V13.0497H38.4467H39.5101V12.5056V11.9616H39.243C39.065 11.9616 38.9413 11.9319 38.8721 11.8726C38.7682 11.7885 38.7682 11.7687 38.7534 9.19197L38.7435 6.59544L38.4319 6.48663C37.7247 6.2344 36.3992 6.07119 35.7513 6.16021ZM36.9877 7.38182L37.1608 7.43622V9.36507V11.2939L37.0224 11.5016C36.7652 11.8775 36.4041 12.0605 35.8997 12.0704C35.2172 12.0803 34.7918 11.7242 34.5792 10.9477C34.4753 10.5718 34.4407 9.71622 34.5099 9.23648C34.688 8.01487 35.1034 7.42138 35.8749 7.31257C36.1766 7.27301 36.7553 7.30763 36.9877 7.38182Z" fill="#CF972B"/>
<path d="M78.0623 6.15534C78.0079 6.16523 77.8397 6.19986 77.6914 6.22953C76.816 6.40758 76.0642 6.95656 75.6883 7.70832C75.3767 8.33148 75.3026 8.69747 75.2976 9.68662C75.2976 10.4186 75.3124 10.6164 75.4015 10.9824C75.718 12.2287 76.4599 12.9756 77.5925 13.1783C78.6607 13.3712 79.6548 13.0943 80.3868 12.3969C81.0545 11.7638 81.3414 11.017 81.3859 9.78554C81.4601 7.82701 80.8567 6.72905 79.4718 6.27404C79.1603 6.17513 78.2997 6.10094 78.0623 6.15534ZM79.0515 7.48576C79.6054 7.82701 79.8774 8.87552 79.7636 10.2109C79.6598 11.4374 79.185 12.0606 78.3689 12.0606C77.3303 12.0606 76.9 11.3336 76.8951 9.5976C76.8951 8.5392 77.088 7.92098 77.5183 7.57478C77.7754 7.36706 77.9733 7.31265 78.4135 7.32749C78.7597 7.33738 78.8437 7.35717 79.0515 7.48576Z" fill="#CF972B"/>
<path d="M84.665 6.16031C83.7451 6.31363 82.8202 7.00604 82.4344 7.83198C82.1624 8.40569 82.1179 8.68265 82.1179 9.71137C82.1179 10.5423 82.1328 10.6956 82.2317 11.0467C82.5581 12.1843 83.2159 12.8569 84.2693 13.124C84.9518 13.302 86.0894 13.2031 86.7422 12.9162C87.0785 12.7679 87.4841 12.5107 87.4841 12.4464C87.4841 12.3722 86.9697 11.4671 86.9252 11.4671C86.9054 11.4671 86.8065 11.5215 86.7026 11.5908C86.3218 11.843 85.8619 11.9765 85.3821 11.9815C84.8579 11.9864 84.5958 11.8875 84.2941 11.5858C83.6412 10.9181 83.4731 9.22174 83.9528 8.14851C84.2298 7.53029 84.9024 7.21376 85.6245 7.36213C86.0251 7.44621 86.0993 7.55996 86.0993 8.08916V8.50955L86.3367 8.47988C86.4653 8.46504 86.7422 8.44031 86.9549 8.42547L87.3357 8.39085V7.53524V6.67467L87.1033 6.56586C86.3416 6.22461 85.3079 6.0515 84.665 6.16031Z" fill="#CF972B"/>
<path d="M90.0361 6.18007C89.1854 6.31855 88.5277 6.76367 88.2457 7.37695C88.0628 7.7825 88.0182 8.53426 88.1567 8.96949C88.3496 9.58771 88.9777 10.018 90.1548 10.3296C90.8719 10.5175 91.0648 10.6016 91.2429 10.8093C91.5644 11.1753 91.4654 11.7193 91.0352 11.9419C90.8126 12.0556 90.3823 12.1002 89.9718 12.0556C89.3289 11.9864 89.1657 11.8182 89.1657 11.2198V10.8637L88.6117 10.8983C88.3051 10.9181 88.038 10.9478 88.0133 10.9676C87.9935 10.9874 87.9836 11.4127 87.9886 11.9073L88.0034 12.8123L88.2457 12.9063C88.9382 13.1684 90.5406 13.2871 91.2132 13.1289C92.232 12.8865 92.8503 12.2881 92.9739 11.4226C93.0975 10.5472 92.781 9.86467 92.0639 9.46406C91.8957 9.37504 91.4358 9.19699 91.0352 9.07335C90.229 8.82606 89.8927 8.67274 89.7097 8.47491C89.6009 8.36116 89.586 8.29686 89.586 7.99517C89.586 7.65391 89.591 7.64402 89.769 7.4907C90.0905 7.21374 90.5851 7.13955 91.144 7.28793C91.5495 7.39179 91.6385 7.52038 91.6385 7.98528V8.35621L91.9007 8.33148C92.0392 8.31665 92.3062 8.29192 92.4942 8.27708L92.8255 8.24246V7.44124V6.64003L92.6673 6.57573C91.688 6.18996 90.7879 6.05148 90.0361 6.18007Z" fill="#CF972B"/>
<path d="M62.3793 6.76863C61.0439 6.96646 59.941 8.12872 59.5355 9.76082C59.4069 10.2801 59.3574 11.2594 59.4415 11.6204C59.7679 13.0102 61.1478 13.5097 62.9035 12.8767C63.2695 12.7431 63.7641 12.5107 63.9768 12.3722L64.0905 12.298L63.957 12.0655C63.7443 11.6946 63.7641 11.7095 63.4822 11.8232C62.8541 12.0754 62.4732 12.1694 61.9886 12.1941C61.3852 12.2238 61.1379 12.1645 60.8708 11.9271C60.584 11.6699 60.4702 11.2099 60.5592 10.6609L60.5939 10.478H60.9697C62.1468 10.478 63.4822 10.0427 64.0955 9.45913C64.6049 8.9695 64.773 8.41557 64.59 7.7924C64.4614 7.34728 63.9718 6.93679 63.4377 6.82303C63.0915 6.75379 62.6513 6.72906 62.3793 6.76863ZM63.1854 7.70338C63.4377 7.82208 63.5564 8.0298 63.5564 8.35622C63.5564 8.88542 63.0717 9.27613 62.1221 9.51848C61.7017 9.62728 60.6779 9.73609 60.6779 9.67674C60.6779 9.6619 60.7175 9.53331 60.7719 9.38494C61.217 8.08915 62.3298 7.31761 63.1854 7.70338Z" fill="#CF972B"/>
</svg>
