<svg width="171" height="175" viewBox="0 0 171 175" fill="none" xmlns="http://www.w3.org/2000/svg">
<path d="M54.0137 24.3886C53.2489 24.7212 52.484 25.7521 50.788 28.8781C49.5243 31.1061 48.5266 33.0017 48.5266 33.0682C48.5266 33.168 49.4245 33.2345 50.5552 33.2345C52.9828 33.2345 53.7477 33.6003 54.3795 35.0968C54.7786 36.0611 54.7786 36.3937 54.3795 37.3581C54.1135 37.9899 53.6147 38.655 53.2489 38.8546C52.8498 39.0541 50.8545 39.2204 48.7927 39.2204H45.0348L43.4386 42.0803C42.5407 43.6433 41.9089 45.0068 41.9754 45.0733C42.0419 45.1398 54.6788 45.173 70.0759 45.1398L98.0434 45.04L96.4472 42.2133L94.851 39.3867L80.119 39.2204L65.4202 39.0541L64.6221 38.123C63.5912 36.9258 63.5912 35.5291 64.6221 34.3319L65.4202 33.4007L78.3897 33.2345L91.3592 33.0682L89.2641 29.2771C86.0384 23.4575 88.333 24.0893 70.3752 24.0228C58.1373 23.9563 54.8118 24.0228 54.0137 24.3886Z" fill="#CF972B"/>
<path d="M13.3427 40.0518C12.3451 40.8831 12.2786 41.0827 12.2786 43.078V45.2063H16.768H21.2574V43.2442C21.2574 41.6148 21.1244 41.0827 20.4593 40.3178C19.7277 39.4864 19.4284 39.3867 17.034 39.2869C14.5732 39.1539 14.3404 39.2204 13.3427 40.0518Z" fill="#CF972B"/>
<path d="M6.0599 51.9572C4.06459 52.6888 2.16905 54.3515 1.13815 56.2138L0.140494 58.0096L0.040729 102.372C-0.0590362 151.556 -0.158801 148.862 2.1358 151.523C2.76765 152.288 4.16436 153.319 5.22852 153.851C7.09081 154.782 7.22383 154.782 14.2074 154.882L21.2575 155.015V151.357C21.2575 147.998 21.324 147.599 22.0223 146.801C23.1198 145.537 24.8823 145.337 26.1127 146.402C27.0439 147.2 27.0771 147.333 27.2434 151.024L27.4097 154.782L63.7907 154.882L100.172 154.948L98.0102 152.554C95.1835 149.361 92.8557 146.335 90.9601 143.409L89.4304 141.014L86.77 142.145C74.9977 147.2 61.8619 146.734 50.4554 140.914C40.7782 135.959 32.9633 126.947 29.5712 116.771C27.8752 111.584 27.4762 109.056 27.4762 103.07C27.4762 98.5808 27.6092 96.9845 28.2078 94.2576C32.0321 77.2975 45.0016 64.6606 62.0282 61.3018C66.1186 60.4705 73.9335 60.4705 77.7911 61.2686C86.3709 63.0976 93.0884 66.5894 99.2074 72.4423C105.958 78.927 110.281 87.0745 111.844 96.1532C112.044 97.1841 112.21 97.4169 112.809 97.4169C114.205 97.4169 117.498 98.4145 119.992 99.6117C123.384 101.208 126.21 103.303 128.705 106.03L130.833 108.358L132.329 106.629C133.892 104.799 136.22 102.738 138.581 101.042L140.011 100.044L139.912 79.3593L139.812 58.6747L139.047 57.0119C138.049 54.8504 136.553 53.2874 134.491 52.323L132.828 51.5248L69.9762 51.5581C22.7207 51.5581 6.85802 51.6579 6.0599 51.9572ZM126.443 58.6082C128.904 59.7389 131.332 62.0335 132.529 64.3946C133.394 66.1571 133.493 66.6227 133.493 69.6489C133.493 72.3758 133.36 73.2737 132.762 74.5706C131.731 76.7655 128.937 79.6254 126.709 80.6895C125.08 81.4877 124.448 81.5874 121.688 81.6207C118.761 81.6207 118.329 81.5209 116.3 80.5233C107.854 76.3664 107.122 64.8601 114.97 59.6058C116.101 58.841 117.664 58.0761 118.462 57.8766C120.823 57.3112 124.315 57.6105 126.443 58.6082ZM23.4523 61.6011C24.5165 62.8316 24.5165 64.4611 23.419 65.625L22.6209 66.4896H15.1718C7.88893 66.4896 7.72265 66.4896 7.05755 65.7248C6.09315 64.6939 5.82711 63.5964 6.29268 62.4658C7.05755 60.6367 7.72265 60.5037 15.5376 60.6035L22.6542 60.67L23.4523 61.6011ZM22.9535 73.2404C24.5165 74.4376 24.6495 76.4662 23.286 77.8296L22.3216 78.794H15.4711C11.7465 78.794 8.28799 78.661 7.82242 78.4615C5.89362 77.7298 5.52782 74.8034 7.19057 73.4732C7.98869 72.8414 8.52077 72.8081 15.2383 72.8081C20.3596 72.8414 22.5877 72.9411 22.9535 73.2404Z" fill="#CF972B"/>
<path d="M119.593 63.9953C117.065 64.8932 115.602 66.955 115.602 69.6487C115.602 74.5704 120.923 77.3638 125.047 74.6369C127.275 73.207 128.272 69.8482 127.208 67.3873C126.643 65.9574 124.681 64.2946 123.118 63.8623C121.522 63.3967 121.156 63.43 119.593 63.9953Z" fill="#CF972B"/>
<path d="M66.2182 66.8221C60.5981 67.3874 54.5457 69.549 49.7902 72.6749C46.764 74.637 41.4764 79.9246 39.5809 82.7845C36.854 86.9746 35.0915 91.2978 34.0938 96.153C33.4287 99.3788 33.3955 106.462 34.0273 109.788C36.2221 121.327 43.4052 130.672 54.0136 135.86C63.6576 140.549 74.2327 140.815 84.3422 136.591C85.6724 136.059 86.7699 135.494 86.7699 135.361C86.7699 135.061 85.3731 129.541 85.2734 129.408C85.2401 129.342 84.6748 129.608 84.0762 129.973C80.5512 132.069 75.1306 133.365 69.976 133.365C62.3606 133.365 55.7429 130.938 49.9897 126.016C45.6666 122.292 42.0418 116.538 40.4788 110.885C39.5144 107.26 39.4146 99.412 40.3458 95.9535C41.3102 92.3952 42.7069 89.2692 44.7022 86.243C47.4624 82.1194 48.9921 81.1217 50.9541 82.1859C53.0492 83.2833 53.0825 85.3451 51.0539 87.806C47.7949 91.7966 45.9659 96.5188 45.6333 101.74C45.1345 110.12 48.8923 118.068 55.6764 122.857C60.0328 125.95 63.192 127.014 68.7456 127.247C73.7339 127.479 76.2945 126.947 80.6177 124.852C84.4753 122.957 85.4397 122.059 85.4397 120.396C85.4397 118.7 86.6036 114.41 87.7675 111.849C88.8982 109.355 90.2949 107.227 92.523 104.633L94.1857 102.671L93.9862 100.476C93.7534 97.5497 92.4232 93.4594 90.8602 90.7657C90.1619 89.5685 88.3661 87.3737 86.8696 85.8772C84.5418 83.5494 83.6106 82.8843 80.7174 81.4875C74.8313 78.6276 69.3442 78.0955 63.059 79.7915C60.6979 80.4234 60.3986 80.4234 59.5007 79.9578C57.9377 79.1264 57.3724 77.3307 58.2037 75.7344C59.3677 73.5396 68.9119 72.0764 74.9976 73.1738C82.1807 74.4375 89.0977 78.5278 93.5539 84.1479C96.7131 88.1386 98.5754 92.2954 99.8724 98.1151L100.072 98.9797L102.3 98.2148C103.564 97.7825 104.827 97.4167 105.16 97.4167C105.958 97.4167 105.892 96.4191 104.894 92.9605C101.07 79.8248 89.9291 69.7152 76.6603 67.3541C72.9357 66.689 69.4772 66.5228 66.2182 66.8221Z" fill="#CF972B"/>
<path d="M105.592 103.602C98.0101 105.431 92.6228 112.382 91.4256 121.892C90.4612 129.608 93.1216 137.024 99.8724 145.304C103.431 149.694 108.951 155.114 119.958 165.191L130.7 175.001L131.598 174.169C132.097 173.704 136.619 169.614 141.641 165.024C152.116 155.48 159.765 147.798 163.024 143.475C165.584 140.083 168.644 134.197 169.475 131.004C170.273 128.078 170.273 121.36 169.475 118.367C167.68 111.484 163.157 106.096 157.404 104.035C154.544 102.97 149.289 103.004 146.296 104.035C141.608 105.664 137.085 109.422 134.524 113.845C133.028 116.372 131.964 117.37 130.7 117.37C129.37 117.37 128.572 116.638 127.142 114.144C125.213 110.785 121.122 106.795 118.03 105.298C113.806 103.203 109.583 102.638 105.592 103.602Z" fill="#CF972B"/>
</svg>
