<svg width="512" height="512" viewBox="0 0 512 512" fill="none" xmlns="http://www.w3.org/2000/svg">
<path d="M488 144H448V120C448 117.878 447.157 115.843 445.657 114.343C444.157 112.843 442.122 112 440 112H392C389.878 112 387.843 112.843 386.343 114.343C384.843 115.843 384 117.878 384 120V144H352V120C352.001 118.801 351.732 117.617 351.213 116.536C350.693 115.455 349.937 114.505 349 113.757V113.757L309 81.757C307.581 80.6203 305.818 80.0006 304 80H208C206.183 79.9994 204.419 80.6177 203 81.753L165.194 112H120C117.878 112 115.843 112.843 114.343 114.343C112.843 115.843 112 117.878 112 120V144H96V120C96 117.878 95.1571 115.843 93.6569 114.343C92.1566 112.843 90.1217 112 88 112H40C37.8783 112 35.8434 112.843 34.3431 114.343C32.8429 115.843 32 117.878 32 120V144H24C21.8783 144 19.8434 144.843 18.3431 146.343C16.8429 147.843 16 149.878 16 152V424C16 426.122 16.8429 428.157 18.3431 429.657C19.8434 431.157 21.8783 432 24 432H488C490.122 432 492.157 431.157 493.657 429.657C495.157 428.157 496 426.122 496 424V152C496 149.878 495.157 147.843 493.657 146.343C492.157 144.843 490.122 144 488 144ZM400 128H432V144H400V128ZM176 144V128H336V144H176ZM210.806 96H301.194L321.194 112H190.806L210.806 96ZM128 128H160V144H128V128ZM48 128H80V144H48V128ZM480 160V240H357.179C348.099 220.851 333.771 204.672 315.861 193.343C297.95 182.014 277.193 176 256 176C234.807 176 214.05 182.014 196.139 193.343C178.229 204.672 163.901 220.851 154.821 240H32V160H480ZM198.369 384H32V256H148.666C141.563 279.825 142.592 305.337 151.591 328.513C160.59 351.689 177.046 371.21 198.366 384H198.369ZM160 288C160 269.013 165.63 250.452 176.179 234.665C186.728 218.878 201.721 206.574 219.262 199.308C236.804 192.042 256.106 190.14 274.729 193.845C293.351 197.549 310.456 206.692 323.882 220.118C337.308 233.544 346.451 250.649 350.155 269.271C353.86 287.894 351.958 307.196 344.692 324.738C337.426 342.279 325.122 357.272 309.335 367.821C293.548 378.37 274.987 384 256 384C230.548 383.971 206.147 373.848 188.149 355.851C170.152 337.853 160.029 313.452 160 288V288ZM368 288C368.006 277.163 366.434 266.384 363.334 256H480V384H313.631C330.205 374.048 343.923 359.978 353.45 343.155C362.977 326.333 367.99 307.333 368 288V288ZM32 416V400H480V416H32Z" fill="white"/>
<path d="M256 208C240.177 208 224.71 212.692 211.554 221.482C198.398 230.273 188.145 242.767 182.09 257.385C176.035 272.003 174.45 288.089 177.537 303.607C180.624 319.126 188.243 333.38 199.431 344.569C210.62 355.757 224.874 363.376 240.393 366.463C255.911 369.55 271.997 367.965 286.615 361.91C301.233 355.855 313.727 345.602 322.518 332.446C331.308 319.29 336 303.823 336 288C335.976 266.79 327.54 246.456 312.542 231.458C297.544 216.46 277.21 208.024 256 208V208ZM256 352C243.342 352 230.968 348.246 220.443 341.214C209.919 334.182 201.716 324.186 196.872 312.492C192.028 300.797 190.76 287.929 193.23 275.514C195.699 263.099 201.795 251.696 210.745 242.745C219.696 233.795 231.099 227.699 243.514 225.23C255.929 222.76 268.797 224.028 280.492 228.872C292.186 233.716 302.182 241.919 309.214 252.444C316.246 262.968 320 275.342 320 288C319.981 304.968 313.232 321.236 301.234 333.234C289.236 345.232 272.968 351.981 256 352Z" fill="white"/>
<path d="M256 256C249.671 256 243.484 257.877 238.222 261.393C232.959 264.909 228.858 269.907 226.436 275.754C224.014 281.601 223.38 288.035 224.615 294.243C225.85 300.45 228.897 306.152 233.373 310.627C237.848 315.103 243.55 318.15 249.757 319.385C255.965 320.62 262.399 319.986 268.246 317.564C274.093 315.142 279.091 311.041 282.607 305.778C286.123 300.516 288 294.329 288 288C287.99 279.516 284.616 271.382 278.617 265.383C272.618 259.384 264.484 256.01 256 256V256ZM256 304C252.836 304 249.742 303.062 247.111 301.304C244.48 299.545 242.429 297.047 241.218 294.123C240.007 291.199 239.69 287.982 240.307 284.879C240.925 281.775 242.449 278.924 244.686 276.686C246.924 274.449 249.775 272.925 252.879 272.307C255.982 271.69 259.199 272.007 262.123 273.218C265.047 274.429 267.545 276.48 269.304 279.111C271.062 281.742 272 284.835 272 288C271.995 292.242 270.308 296.309 267.308 299.308C264.309 302.308 260.242 303.995 256 304V304Z" fill="white"/>
<path d="M56 224H88C90.1217 224 92.1566 223.157 93.6569 221.657C95.1571 220.157 96 218.122 96 216V184C96 181.878 95.1571 179.843 93.6569 178.343C92.1566 176.843 90.1217 176 88 176H56C53.8783 176 51.8434 176.843 50.3431 178.343C48.8429 179.843 48 181.878 48 184V216C48 218.122 48.8429 220.157 50.3431 221.657C51.8434 223.157 53.8783 224 56 224ZM64 192H80V208H64V192Z" fill="white"/>
<path d="M120 208C124.418 208 128 204.418 128 200C128 195.582 124.418 192 120 192C115.582 192 112 195.582 112 200C112 204.418 115.582 208 120 208Z" fill="white"/>
<path d="M344 296C348.418 296 352 292.418 352 288C352 283.582 348.418 280 344 280C339.582 280 336 283.582 336 288C336 292.418 339.582 296 344 296Z" fill="white"/>
<path d="M376 192H456C458.122 192 460.157 191.157 461.657 189.657C463.157 188.157 464 186.122 464 184C464 181.878 463.157 179.843 461.657 178.343C460.157 176.843 458.122 176 456 176H376C373.878 176 371.843 176.843 370.343 178.343C368.843 179.843 368 181.878 368 184C368 186.122 368.843 188.157 370.343 189.657C371.843 191.157 373.878 192 376 192Z" fill="white"/>
<path d="M456 208H392C389.878 208 387.843 208.843 386.343 210.343C384.843 211.843 384 213.878 384 216C384 218.122 384.843 220.157 386.343 221.657C387.843 223.157 389.878 224 392 224H456C458.122 224 460.157 223.157 461.657 221.657C463.157 220.157 464 218.122 464 216C464 213.878 463.157 211.843 461.657 210.343C460.157 208.843 458.122 208 456 208Z" fill="white"/>
</svg>
